<?xml version="1.0" encoding="utf-8" ?>
<svg xmlns="http://www.w3.org/2000/svg" xmlns:xlink="http://www.w3.org/1999/xlink" width="512" height="512">
	<path fill="white" transform="scale(0.666667 0.666667)" d="M-0 -0L768 0L768 768L-0 768L0 -0Z"/>
	<path fill="#FF7A30" transform="scale(0.666667 0.666667)" d="M288.022 592.035L287.957 575.941L303.946 575.997L303.985 568.019L311.987 568.015L311.962 559.956L319.922 559.942L319.955 551.975L327.894 551.974L327.996 543.968L343.901 544.024L343.911 535.939L351.921 535.921L351.956 527.975L359.972 527.988L359.965 520.011L367.894 519.985L367.907 511.941L375.924 511.923L375.927 503.962L383.973 503.98L383.966 495.983L391.899 496L391.905 487.94L399.921 487.922L399.956 479.977L407.973 479.974L407.966 472.015L415.901 471.999L415.907 463.94L423.921 463.922L423.956 455.977L431.973 455.974L431.966 448.016L439.899 448L439.907 439.94L447.921 439.944L447.956 431.977L455.973 431.974L455.966 424.016L463.901 424L463.907 415.94L471.921 415.922L471.956 407.977L479.973 407.974L479.966 400.016L487.901 400L487.907 391.94L495.879 391.922L495.945 375.986L503.978 375.986L503.982 367.945L520.005 367.979L520.021 359.976L527.972 359.974L527.966 351.982L535.912 351.997L535.917 343.939L543.918 343.942C543.894 341.52 543.55 338.259 544.175 335.96L559.909 335.986L559.955 328.015L567.966 328.012L567.968 319.937L575.974 319.937L575.975 311.965L583.926 311.977L583.902 295.959L591.949 295.936L592.004 287.998L599.545 288.069C599.54 289.935 599.36 292.059 599.774 293.878L599.948 294.586L600.188 295.902C602.485 296.455 605.553 296.053 607.944 296.006L607.957 328.096L615.97 328.037L615.955 381.654L615.959 432.653L615.992 439.977L607.926 439.954L607.862 461.335L607.864 463.688C605.926 464.48 602.138 463.992 599.966 463.98L600.063 464.803L599.988 480.003L591.929 479.989L591.997 496.024L584.13 496.003C583.621 497.344 583.911 499.545 583.915 501.006L583.954 511.977L575.969 511.95L575.983 520.03L567.93 520.024L567.989 535.976L559.929 535.953L559.951 544.017L551.971 544L551.985 552.001L543.929 551.988L543.978 559.972L535.928 559.954L535.95 568.008L519.997 568.014L520.012 575.999L511.931 575.987L511.951 583.968L495.953 583.954L495.991 592.012L479.97 592.009L479.986 599.996L463.931 599.99L463.952 607.97L423.953 607.953L423.981 616.005L419.152 615.968L344.058 616.026C344.07 613.716 344.4 610.759 343.881 608.536L343.727 607.926L304.068 607.976L304.046 600.04L288.034 600.001L288.022 592.035Z"/>
	<path fill="#FF6A29" transform="scale(0.666667 0.666667)" d="M304.046 600.04L303.974 592.012C306.432 591.965 309.612 592.335 311.972 591.851L311.964 583.941L319.883 583.929L319.978 575.977L327.881 575.981L327.994 567.936L343.897 568.031L343.913 559.926L351.919 559.96L351.99 551.917L367.885 552.005L367.912 543.965L375.826 543.945L376.002 535.91L383.957 535.913L383.964 528.142C384.958 527.656 386.95 527.935 388.126 527.937L399.917 527.981L400.009 519.982L407.962 519.997L407.963 511.955L415.898 511.942L415.92 503.96L423.885 503.974L424.005 496.021L431.236 495.961C431.732 495.987 431.492 496.058 431.916 495.742L431.965 487.935L439.883 487.932L439.918 479.974L447.885 479.984L448.005 472.017L455.236 471.961C455.732 471.987 455.492 472.058 455.916 471.742L455.965 463.936L463.88 463.932L463.966 455.922L479.968 456.003L479.951 447.967L487.853 447.984L487.899 439.84L503.973 439.931L503.96 431.951L511.892 431.983L511.904 423.958L520.058 423.992L519.988 415.87L535.881 415.936L535.915 407.975L543.919 407.969L543.996 399.904L559.897 400.026L559.893 391.925L567.928 391.961L568.014 383.973L575.965 384.005L575.953 375.965L583.853 375.984L583.899 367.841L599.947 367.906L599.965 352.166C601.472 351.364 606.002 351.929 607.892 352.025L607.969 343.931L615.593 344.21L615.595 381.174L615.955 381.654L615.959 432.653L615.594 432.174L615.585 384.213L607.953 383.966L607.882 391.906L599.919 391.939L599.92 407.958L591.977 407.973L591.87 415.936L583.914 415.933L583.877 424.003L583.441 423.974L575.964 424.011L575.954 431.98L567.98 431.973L567.903 439.91C562.676 439.9 557.154 440.393 551.974 439.877L551.924 448.008L551.546 447.984L536.11 447.93C535.468 450.231 535.875 453.548 535.885 456.002L520.036 455.948L519.978 463.905L511.927 463.881L511.849 471.999L511.436 471.972L495.976 471.978L495.908 479.953L487.913 479.966L487.881 487.892L479.957 487.944L479.944 496.009L479.562 495.985L463.933 495.922L463.875 503.958L455.977 503.951L455.927 511.863L447.971 511.941L447.87 520.028L431.973 519.951L431.955 527.952L423.98 527.973L423.87 535.914L415.914 535.933L415.877 544.003L415.44 543.974L407.965 544.011L407.916 551.979L391.932 551.91L391.881 559.879L383.967 559.944L383.944 568.009L383.562 567.985L368.083 567.974L367.886 576.004L351.976 575.947L351.869 583.915L343.911 583.933L343.877 592.02L343.487 591.994L328 591.894L327.902 599.983L319.977 600.003C319.981 602.344 319.665 605.216 320.199 607.483L337.518 607.538C338.967 607.533 342.585 607.182 343.727 607.926L304.068 607.976L304.046 600.04Z"/>
	<path fill="#FF7A30" transform="scale(0.666667 0.666667)" d="M343.727 607.926C342.585 607.182 338.967 607.533 337.518 607.538L320.199 607.483C319.665 605.216 319.981 602.344 319.977 600.003L327.902 599.983L328 591.894L343.487 591.994L343.877 592.02L343.911 583.933L351.869 583.915L351.976 575.947L367.886 576.004L368.083 567.974L383.562 567.985L383.944 568.009L383.967 559.944L391.881 559.879L391.932 551.91L407.916 551.979L407.965 544.011L415.44 543.974L415.877 544.003L415.914 535.933L423.87 535.914L423.98 527.973L431.955 527.952L431.973 519.951L447.87 520.028L447.971 511.941L455.927 511.863L455.977 503.951L463.875 503.958L463.933 495.922L479.562 495.985L479.944 496.009L479.957 487.944L487.881 487.892L487.913 479.966L495.908 479.953L495.976 471.978L511.436 471.972L511.849 471.999L511.927 463.881L519.978 463.905L520.036 455.948L535.885 456.002C535.875 453.548 535.468 450.231 536.11 447.93L551.546 447.984L551.924 448.008L551.974 439.877C557.154 440.393 562.676 439.9 567.903 439.91L567.98 431.973L575.954 431.98L575.964 424.011L583.441 423.974L583.877 424.003L583.914 415.933L591.87 415.936L591.977 407.973L599.92 407.958L599.919 391.939L607.882 391.906L607.953 383.966L615.585 384.213L615.594 432.174L615.959 432.653L615.992 439.977L607.926 439.954L607.862 461.335L607.864 463.688C605.926 464.48 602.138 463.992 599.966 463.98L600.063 464.803L599.988 480.003L591.929 479.989L591.997 496.024L584.13 496.003C583.621 497.344 583.911 499.545 583.915 501.006L583.954 511.977L575.969 511.95L575.983 520.03L567.93 520.024L567.989 535.976L559.929 535.953L559.951 544.017L551.971 544L551.985 552.001L543.929 551.988L543.978 559.972L535.928 559.954L535.95 568.008L519.997 568.014L520.012 575.999L511.931 575.987L511.951 583.968L495.953 583.954L495.991 592.012L479.97 592.009L479.986 599.996L463.931 599.99L463.952 607.97L423.953 607.953L423.981 616.005L419.152 615.968L344.058 616.026C344.07 613.716 344.4 610.759 343.881 608.536L343.727 607.926Z"/>
	<path fill="#FF6A29" transform="scale(0.666667 0.666667)" d="M599.966 463.98L599.926 455.957L607.48 456.224L607.862 461.335L607.864 463.688C605.926 464.48 602.138 463.992 599.966 463.98Z"/>
	<path fill="#FF6A29" transform="scale(0.666667 0.666667)" d="M419.152 615.968C417.987 615.06 366.671 615.584 360.375 615.582C359.582 614.145 359.969 609.895 359.926 608.098L367.956 607.948L367.884 599.891L383.955 599.982L383.937 591.901L399.482 592.014L399.888 592.044C399.9 589.67 399.412 586.09 400.106 583.915L407.952 583.896L407.933 575.886L423.857 575.986L423.928 567.996L431.939 568.004L431.912 559.944L439.886 559.93L439.905 551.893L455.951 551.98L455.917 543.92L463.89 544.01L463.907 535.822C469.109 536.367 474.699 535.922 479.954 535.939L479.936 527.918L495.856 527.986L495.93 519.954L511.891 519.971L511.898 511.886L527.949 511.935L527.939 503.933L535.89 503.968L535.916 495.986L543.852 496.016L543.914 487.835C549.092 488.372 554.66 487.94 559.887 487.933L559.878 479.894L575.956 479.982L575.902 471.92L583.891 472.009L583.913 463.867C587.414 464.165 590.989 463.894 594.503 463.891C595.827 463.89 597.139 464.209 598.45 464.003L599.062 463.901C599.567 463.93 599.794 464.453 600.063 464.803L599.988 480.003L591.929 479.989L591.997 496.024L584.13 496.003C583.621 497.344 583.911 499.545 583.915 501.006L583.954 511.977L575.969 511.95L575.983 520.03L567.93 520.024L567.989 535.976L559.929 535.953L559.951 544.017L551.971 544L551.985 552.001L543.929 551.988L543.978 559.972L535.928 559.954L535.95 568.008L519.997 568.014L520.012 575.999L511.931 575.987L511.951 583.968L495.953 583.954L495.991 592.012L479.97 592.009L479.986 599.996L463.931 599.99L463.952 607.97L423.953 607.953L423.981 616.005L419.152 615.968Z"/>
	<path fill="#FFE4AF" transform="scale(0.666667 0.666667)" d="M351.759 151.839C352.562 150.185 352.039 145.985 352.028 144.023L367.969 143.994L400.086 144.012L424.005 143.993L424.014 151.976L446.211 151.908C448.912 151.903 453.157 151.362 455.661 152.196L424.049 152.332L423.973 168.007L415.929 167.999L415.94 199.957L407.973 200.013L407.985 231.974L399.984 232.029L399.974 247.961L391.942 248.025L391.95 264L383.98 264.002L383.985 279.972L376.022 280.029L375.949 288.007L367.944 287.99L367.943 303.967L359.974 304.026L359.984 319.953L352.024 319.996L351.961 328.005L343.925 328.021L343.945 351.967L335.975 352.026L335.989 367.959L328.02 367.988L327.96 376.006L319.944 376.018L319.957 391.938L312.014 392.003L311.984 399.958L304.048 400.003L303.984 407.974L296.014 407.989L295.954 416.004L287.968 415.963L287.999 424.022L279.944 424.018L280.048 439.797C277.575 440.296 274.467 439.977 271.916 439.988L271.955 448.044L263.978 448.008L263.989 455.999L255.992 455.989C255.996 458.477 256.359 461.598 255.878 464.001L247.908 464.039L247.957 479.998L239.963 480.019L239.999 487.968L231.963 488.034L232.034 496.058L223.907 496.066L223.956 504.001L207.968 503.996L208.03 511.818C206.464 512.157 204.614 511.975 202.999 511.978L192.027 512.005L184.068 512L184.059 496.254C182.114 495.523 178.241 496.034 176.062 496.041L176.027 480.021L168.029 480.005L168.021 464.211C166.828 463.5 161.717 463.995 160.071 463.99L160.032 448.068C160.065 445.546 160.365 442.666 159.811 440.213L151.894 440.191L151.929 416.373L152.008 320.045L160.015 319.962L160.044 296.045L167.987 295.974L168.014 280.084L175.958 280.024L176.016 264.022L184.014 263.999L184.042 248.045C186.348 248.01 189.871 248.467 191.984 247.775L192.019 240.023L199.937 239.991L200.036 232.08L208.016 232.043L208.052 216.029L215.972 215.99L216.037 208.084L223.938 208.025L224.113 199.995L239.789 199.972C240.541 198.405 240.018 193.931 240.02 192.023L247.937 191.992L248.036 184.079L256.014 184.041L256.084 176.034L271.934 176.01L272.092 168.015L287.975 168.004L288.039 160.233C288.932 159.766 290.995 160.017 292.047 160.017L306.479 160.01C308.108 160.012 310.51 160.36 311.98 159.819L312.021 152.046L351.759 151.839Z"/>
	<path fill="#FFE091" transform="scale(0.666667 0.666667)" d="M367.969 143.994L400.086 144.012L399.945 151.924L391.92 152.043L391.903 167.961L383.961 167.983L383.973 183.897L375.966 184.04L375.891 207.919L367.914 208.022L367.907 223.901L359.96 223.972L359.973 239.96L351.965 239.983L351.885 255.95L343.912 256.022L343.907 271.902L335.96 271.977L335.973 287.972L327.966 287.983L327.903 311.96L319.935 311.996L319.879 319.9L311.96 319.973L311.972 335.951L303.998 335.999L303.892 343.901L295.923 344.005L295.861 351.968L287.964 352.029L287.965 359.962L279.998 359.999L279.892 367.9L271.925 368.004L271.862 375.968L263.965 376.029L263.956 383.962L255.997 383.999L255.892 391.899C253.898 391.911 249.609 391.415 247.933 392.199L247.863 399.968L239.968 400.029L239.959 407.969L223.924 407.966L223.879 415.9L216.146 415.973C215.549 418.234 215.963 421.556 215.963 423.948L199.926 423.988L199.893 431.961L191.966 431.994L191.964 439.898L184.163 439.975C183.534 442.265 183.943 445.573 183.885 448.017L183.42 447.987L160.032 448.068C160.065 445.546 160.365 442.666 159.811 440.213C158.356 439.304 154.089 439.787 152.254 439.794L152.264 416.007L159.974 415.932L160.035 407.989L167.977 407.986L167.984 399.979L184.002 400.015L183.999 391.979L191.976 391.954L191.989 383.993L199.945 383.981L199.963 376.015L215.999 376.023L215.978 367.992L223.94 367.947L223.954 359.993L231.98 359.993L232.003 352.035L239.997 351.991L239.977 343.992L247.94 343.948L247.955 335.991L256.002 335.984L255.973 319.979L263.976 319.954L263.989 311.992L271.961 311.982L271.929 296.004L279.978 295.942L280.023 287.99L287.977 287.987L287.987 280.027L295.943 279.978L295.923 263.99L304.003 263.984L303.982 247.976L311.995 247.955L311.966 232.024L319.942 231.978L319.922 215.991L327.968 215.987L328.011 208.033L335.961 207.971L335.977 199.991L343.962 199.948L343.926 184.02L352.007 183.985L351.992 167.991L359.988 167.989L359.979 152.006L367.958 151.962L367.969 143.994Z"/>
	<path fill="#FFE4AF" transform="scale(0.666667 0.666667)" d="M351.759 151.839C352.562 150.185 352.039 145.985 352.028 144.023L367.969 143.994L367.958 151.962L359.979 152.006L359.988 167.989L351.992 167.991L352.007 183.985L343.926 184.02L343.962 199.948L335.977 199.991L335.961 207.971L328.011 208.033L327.968 215.987L319.922 215.991L319.942 231.978L311.966 232.024L311.995 247.955L303.982 247.976L304.003 263.984L295.923 263.99L295.943 279.978L287.987 280.027L287.977 287.987L280.023 287.99L279.978 295.942L271.929 296.004L271.961 311.982L263.989 311.992L263.976 319.954L255.973 319.979L256.002 335.984L247.955 335.991L247.94 343.948L239.977 343.992L239.997 351.991L232.003 352.035L231.98 359.993L223.954 359.993L223.94 367.947L215.978 367.992L215.999 376.023L199.963 376.015L199.945 383.981L191.989 383.993L191.976 391.954L183.999 391.979L184.002 400.015L167.984 399.979L167.977 407.986L160.035 407.989L159.974 415.932L152.264 416.007L152.254 439.794C154.089 439.787 158.356 439.304 159.811 440.213L151.894 440.191L151.929 416.373L152.008 320.045L160.015 319.962L160.044 296.045L167.987 295.974L168.014 280.084L175.958 280.024L176.016 264.022L184.014 263.999L184.042 248.045C186.348 248.01 189.871 248.467 191.984 247.775L192.019 240.023L199.937 239.991L200.036 232.08L208.016 232.043L208.052 216.029L215.972 215.99L216.037 208.084L223.938 208.025L224.113 199.995L239.789 199.972C240.541 198.405 240.018 193.931 240.02 192.023L247.937 191.992L248.036 184.079L256.014 184.041L256.084 176.034L271.934 176.01L272.092 168.015L287.975 168.004L288.039 160.233C288.932 159.766 290.995 160.017 292.047 160.017L306.479 160.01C308.108 160.012 310.51 160.36 311.98 159.819L312.021 152.046L351.759 151.839Z"/>
	<path fill="#FEF7E8" transform="scale(0.666667 0.666667)" d="M151.929 416.373L152.008 320.045L160.015 319.962L160.044 296.045L167.987 295.974L168.014 280.084L175.958 280.024L176.016 264.022L184.014 263.999L184.042 248.045C186.348 248.01 189.871 248.467 191.984 247.775L192.019 240.023L199.937 239.991L200.036 232.08L208.016 232.043L208.052 216.029L215.972 215.99L216.037 208.084L223.938 208.025L224.113 199.995L239.789 199.972C240.541 198.405 240.018 193.931 240.02 192.023L247.937 191.992L248.036 184.079L256.014 184.041L256.084 176.034L271.934 176.01L272.092 168.015L287.975 168.004L288.039 160.233C288.932 159.766 290.995 160.017 292.047 160.017L306.479 160.01C308.108 160.012 310.51 160.36 311.98 159.819L312.021 152.046L351.759 151.839L351.34 152.012C349.366 152.612 346.326 152.181 344.204 152.18L328.004 152.195C328.016 154.433 328.485 157.894 327.869 159.97L319.994 160.037L319.932 167.999L311.986 168.008L311.993 183.969L304.007 184.013L304.01 199.965L287.991 199.958L287.994 215.978L280.026 216L279.989 223.947L271.968 223.99L271.923 231.979L264.002 232.031L263.991 239.987L256.007 239.993L256.006 255.989L255.508 255.956L247.996 256.041L247.921 263.989L240.003 263.994L239.979 271.957L232.026 272.011L231.973 279.967L223.995 280.042L223.917 287.988L216.001 287.993L215.979 295.957L208.026 296.011L207.973 303.967L199.996 304.043L199.919 311.989L191.99 311.994L191.979 319.957L184.026 320.011L183.973 327.966L167.998 327.975L167.988 335.987L160.032 336.007L159.982 343.953L152.257 344.023L152.228 393.995L152.224 408.14C152.221 410.833 152.406 413.72 151.929 416.373Z"/>
	<path fill="#FF9843" transform="scale(0.666667 0.666667)" d="M455.661 152.196L455.822 152.633C456.4 154.738 456.01 157.868 455.995 160.093L479.993 160.024L480 168.054L496.011 168L495.987 176.191L511.947 175.991L511.963 184.099L520.014 184.051L519.998 192.035L527.996 192.003L528 200.097L544.015 200.003C544.006 201.995 543.449 206.412 544.196 208.088L551.991 208.029L551.997 216.053L559.95 215.999L559.974 232.091L567.993 232.033L568.018 240.056L575.993 240.004L575.998 248.099L583.948 247.989L583.979 264.054L591.983 264.001L592 280.149L599.982 280.037L599.948 294.586L599.774 293.878C599.36 292.059 599.54 289.935 599.545 288.069L592.004 287.998L591.949 295.936L583.902 295.959L583.926 311.977L575.975 311.965L575.974 319.937L567.968 319.937L567.966 328.012L559.955 328.015L559.909 335.986L544.175 335.96C543.55 338.259 543.894 341.52 543.918 343.942L535.917 343.939L535.912 351.997L527.966 351.982L527.972 359.974L520.021 359.976L520.005 367.979L503.982 367.945L503.978 375.986L495.945 375.986L495.879 391.922L487.907 391.94L487.901 400L479.966 400.016L479.973 407.974L471.956 407.977L471.921 415.922L463.907 415.94L463.901 424L455.966 424.016L455.973 431.974L447.956 431.977L447.921 439.944L439.907 439.94L439.899 448L431.966 448.016L431.973 455.974L423.956 455.977L423.921 463.922L415.907 463.94L415.901 471.999L407.966 472.015L407.973 479.974L399.956 479.977L399.921 487.922L391.905 487.94L391.899 496L383.966 495.983L383.973 503.98L375.927 503.962L375.924 511.923L367.907 511.941L367.894 519.985L359.965 520.011L359.972 527.988L351.956 527.975L351.921 535.921L343.911 535.939L343.901 544.024L327.996 543.968L327.894 551.974L319.955 551.975L319.922 559.942L311.962 559.956L311.987 568.015L303.985 568.019L303.946 575.997L287.957 575.941L288.022 592.035L272.059 592.032L272.056 583.983L264.03 583.969L256.069 583.982L256.059 576.002L248.068 576.007L248.058 568.041L240.032 568.031L240.029 559.988L224.072 559.986L224.053 552.006L216.034 552.006L216.029 544.025L208.076 544.033L208.058 528.001L200.068 528.006L200.063 520.043L192.03 520.042L192.027 512.005L202.999 511.978C204.614 511.975 206.464 512.157 208.03 511.818L207.968 503.996L223.956 504.001L223.907 496.066L232.034 496.058L231.963 488.034L239.999 487.968L239.963 480.019L247.957 479.998L247.908 464.039L255.878 464.001C256.359 461.598 255.996 458.477 255.992 455.989L263.989 455.999L263.978 448.008L271.955 448.044L271.916 439.988C274.467 439.977 277.575 440.296 280.048 439.797L279.944 424.018L287.999 424.022L287.968 415.963L295.954 416.004L296.014 407.989L303.984 407.974L304.048 400.003L311.984 399.958L312.014 392.003L319.957 391.938L319.944 376.018L327.96 376.006L328.02 367.988L335.989 367.959L335.975 352.026L343.945 351.967L343.925 328.021L351.961 328.005L352.024 319.996L359.984 319.953L359.974 304.026L367.943 303.967L367.944 287.99L375.949 288.007L376.022 280.029L383.985 279.972L383.98 264.002L391.95 264L391.942 248.025L399.974 247.961L399.984 232.029L407.985 231.974L407.973 200.013L415.94 199.957L415.929 167.999L423.973 168.007L424.049 152.332L455.661 152.196Z"/>
	<path fill="#FFB271" transform="scale(0.666667 0.666667)" d="M391.987 400.097L391.968 407.996L383.974 408.006L383.984 424.009L376.032 423.966L375.976 432.009L367.982 431.97L367.926 440.118L367.939 448.048L359.963 448.026L359.998 455.999L351.962 455.999C351.987 457.976 352.565 462.282 351.822 463.954L343.895 463.964L343.973 479.995L335.962 479.994L336 487.968C333.539 487.958 330.264 487.554 327.91 488.112L328.014 500.268C328.016 501.19 328.259 503.257 327.834 503.999L319.913 503.983L319.953 511.96L311.967 511.972L311.98 520.034L303.97 520.028L304.02 527.842C301.726 528.441 298.32 527.999 295.893 527.987L295.944 544.046L279.928 544.025L280.039 559.798C277.574 560.302 274.456 559.979 271.912 559.989L271.933 568.042L263.964 568.018L264.03 583.969L256.069 583.982L256.059 576.002L248.068 576.007L248.058 568.041L240.032 568.031L240.029 559.988L224.072 559.986L224.053 552.006L216.034 552.006L216.029 544.025L208.076 544.033L208.058 528.001L200.068 528.006L200.063 520.043L192.03 520.042L192.027 512.005L202.999 511.978C204.614 511.975 206.464 512.157 208.03 511.818L207.968 503.996L223.956 504.001L223.907 496.066L232.034 496.058L231.963 488.034L239.999 487.968L239.963 480.019L247.957 479.998L247.908 464.039L255.878 464.001L264.004 463.935L263.987 456.035L271.969 455.956L271.973 448.044L295.946 448.009L295.898 439.949L311.99 439.959L311.937 431.956L327.97 431.999L327.943 423.965L343.946 424.01L343.886 415.959L367.949 415.974L367.872 407.958L383.93 408.004L383.961 400.024L391.987 400.097Z"/>
	<path fill="#FFAF3F" transform="scale(0.666667 0.666667)" d="M519.998 192.035L527.996 192.003L528 200.097L544.015 200.003C544.006 201.995 543.449 206.412 544.196 208.088L551.991 208.029L551.997 216.053L559.95 215.999L559.974 232.091L567.993 232.033L568.018 240.056L575.993 240.004L575.998 248.099L583.948 247.989L583.979 264.054L591.983 264.001L592 280.149L584.111 280.04C583.491 282.292 583.933 285.563 583.934 287.97L575.962 288.015L575.994 295.927L567.966 295.98L568.03 304.02L559.91 304.025L559.972 311.988L551.953 312.008L552.008 319.954L535.908 319.962L535.972 328.019L527.955 328.029L528.004 336.003L511.91 335.985L511.974 343.949L503.959 344.028L503.991 352.014L487.905 351.974L487.972 360.001L479.952 360.01L480.002 367.949L471.919 367.991L471.995 376.021L463.91 376.027L463.972 384.002L455.952 384.008L456.001 391.97L439.909 391.965L439.971 399.999L431.956 400.036L432.001 408.002L423.947 408.008L424.006 415.952L415.911 416.035L415.972 424.019L407.956 424.034L408.005 432.004L391.91 431.983L391.974 439.968L367.926 440.118L367.982 431.97L375.976 432.009L376.032 423.966L383.984 424.009L383.974 408.006L391.968 407.996L391.987 400.097L391.904 391.989L399.825 391.952C400.294 390.903 400.04 388.979 400.034 387.8L399.906 376.032L407.997 376.034L407.956 359.997L415.974 360.003L415.897 343.992L423.818 343.951C424.562 342.288 423.983 337.97 423.958 335.999L431.999 335.999L431.974 328.031L439.932 328.049L439.91 319.995L447.826 319.952C448.388 319.147 447.952 306.146 447.941 304.031L455.999 304.034L455.971 296.177C457.137 295.466 462.317 295.966 463.947 295.964L463.91 287.997L471.826 287.998C472.522 286.776 471.977 281.69 471.967 280.03L479.997 280.034L479.956 263.998L487.974 264.004L487.901 248.189C489.021 247.478 494.429 247.961 496.043 247.955L495.959 239.999L504.008 240L503.972 224.177C505.132 223.467 510.327 223.965 511.954 223.963L511.899 191.992L519.998 192.035Z"/>
	<path fill="#FFE091" transform="scale(0.666667 0.666667)" d="M455.661 152.196L455.822 152.633C456.4 154.738 456.01 157.868 455.995 160.093L479.993 160.024L480 168.054L496.011 168L495.987 176.191L511.947 175.991L511.963 184.099L520.014 184.051L519.998 192.035L511.899 191.992L511.954 223.963C510.327 223.965 505.132 223.467 503.972 224.177L504.008 240L495.959 239.999L496.043 247.955C494.429 247.961 489.021 247.478 487.901 248.189L487.974 264.004L479.956 263.998L479.997 280.034L471.967 280.03C471.977 281.69 472.522 286.776 471.826 287.998L463.91 287.997L463.947 295.964C462.317 295.966 457.137 295.466 455.971 296.177L455.999 304.034L447.941 304.031C447.952 306.146 448.388 319.147 447.826 319.952L439.91 319.995L439.932 328.049L431.974 328.031L431.999 335.999L423.958 335.999C423.983 337.97 424.562 342.288 423.818 343.951L415.897 343.992L415.974 360.003L407.956 359.997L407.997 376.034L399.906 376.032L400.034 387.8C400.04 388.979 400.294 390.903 399.825 391.952L391.904 391.989L391.987 400.097L383.961 400.024L383.93 408.004L367.872 407.958L367.949 415.974L343.886 415.959L343.946 424.01L327.943 423.965L327.97 431.999L311.937 431.956L311.99 439.959L295.898 439.949L295.946 448.009L271.973 448.044L271.969 455.956L263.987 456.035L264.004 463.935L255.878 464.001C256.359 461.598 255.996 458.477 255.992 455.989L263.989 455.999L263.978 448.008L271.955 448.044L271.916 439.988C274.467 439.977 277.575 440.296 280.048 439.797L279.944 424.018L287.999 424.022L287.968 415.963L295.954 416.004L296.014 407.989L303.984 407.974L304.048 400.003L311.984 399.958L312.014 392.003L319.957 391.938L319.944 376.018L327.96 376.006L328.02 367.988L335.989 367.959L335.975 352.026L343.945 351.967L343.925 328.021L351.961 328.005L352.024 319.996L359.984 319.953L359.974 304.026L367.943 303.967L367.944 287.99L375.949 288.007L376.022 280.029L383.985 279.972L383.98 264.002L391.95 264L391.942 248.025L399.974 247.961L399.984 232.029L407.985 231.974L407.973 200.013L415.94 199.957L415.929 167.999L423.973 168.007L424.049 152.332L455.661 152.196Z"/>
	<path fill="#FFC66D" transform="scale(0.666667 0.666667)" d="M495.987 176.191L511.947 175.991L511.963 184.099L520.014 184.051L519.998 192.035L511.899 191.992L511.954 223.963C510.327 223.965 505.132 223.467 503.972 224.177L504.008 240L495.959 239.999L496.043 247.955C494.429 247.961 489.021 247.478 487.901 248.189L487.974 264.004L479.956 263.998L479.997 280.034L471.967 280.03C471.977 281.69 472.522 286.776 471.826 287.998L463.91 287.997L463.947 295.964C462.317 295.966 457.137 295.466 455.971 296.177L455.999 304.034L447.941 304.031C447.952 306.146 448.388 319.147 447.826 319.952L439.91 319.995L439.932 328.049L431.974 328.031L431.999 335.999L423.958 335.999C423.983 337.97 424.562 342.288 423.818 343.951L415.897 343.992L415.974 360.003L407.956 359.997L407.997 376.034L399.906 376.032L400.034 387.8C400.04 388.979 400.294 390.903 399.825 391.952L391.904 391.989L391.987 400.097L383.961 400.024L383.93 408.004L367.872 407.958L367.949 415.974L343.886 415.959L343.946 424.01L327.943 423.965L327.97 431.999L311.937 431.956L311.99 439.959L295.898 439.949L295.946 448.009L271.973 448.044L271.969 455.956L263.987 456.035L264.004 463.935L255.878 464.001C256.359 461.598 255.996 458.477 255.992 455.989L263.989 455.999L263.978 448.008L271.955 448.044L271.916 439.988C274.467 439.977 277.575 440.296 280.048 439.797L279.944 424.018L287.999 424.022L287.968 415.963L295.954 416.004L303.98 415.922L304.036 407.984L311.977 407.98L311.997 399.973L319.941 399.931L320.004 391.959L335.962 391.957L335.985 383.979L352 383.999L351.991 376.043L359.968 376.014L359.998 368.027L367.949 367.931L367.878 351.981L375.891 351.986L375.986 343.992L383.981 343.983L383.986 336.007L391.951 335.982L391.898 319.984L400.004 319.954L399.984 312.006L407.985 311.981L407.963 304.041L415.938 304.018L415.953 296.011L424.004 295.954L423.983 288.007L431.961 288.001L431.963 280.041L439.907 279.977L439.884 264.003C442.349 263.999 445.645 264.391 448 263.829L447.902 248.037L456.01 247.985L455.967 231.991L463.908 231.977L463.883 216.003C466.349 215.999 469.644 216.391 472 215.829L471.902 200.037L479.985 199.949L479.986 192.007L487.95 191.982L487.94 176.177C490.454 175.726 493.427 176.072 495.987 176.191Z"/>
</svg>
