<?xml version="1.0" encoding="utf-8" ?>
<svg xmlns="http://www.w3.org/2000/svg" xmlns:xlink="http://www.w3.org/1999/xlink" width="4619" height="4080">
	<path fill="white" transform="scale(6.01562 5.3125)" d="M-0 -0L768 0L768 768L-0 768L0 -0Z"/>
	<path fill="#FEDAD6" transform="scale(6.01562 5.3125)" d="M351.334 209.197L383.848 209.241L383.961 226.8C383.972 229.514 383.62 232.787 384.129 235.439L384.138 235.838C380.806 236.441 377.255 236.236 373.872 236.253C366.407 236.29 358.737 235.931 351.295 236.364C350.769 236.176 350.564 236.03 350.141 235.688L350.446 209.859L351.334 209.197Z"/>
	<path fill="#FE0000" transform="scale(6.01562 5.3125)" d="M121.916 343.896C122.694 346.525 122.235 350.317 122.237 353.085L122.181 366.338C122.139 368.244 122.265 370.939 121.652 372.746L87.6707 372.813C87.9641 372.383 88.492 371.99 88.7296 371.57C89.2039 370.731 89.0505 367.828 89.0765 366.757L89.3299 350.716C89.3531 348.866 88.9523 345.665 89.9446 344.188L110.166 344.237C113.983 344.223 118.162 344.525 121.916 343.896Z"/>
	<path fill="#D21C21" transform="scale(6.01562 5.3125)" d="M121.48 426.924C124.258 427.95 129.111 427.252 132.129 427.238C139.311 427.202 146.675 427.517 153.829 426.927L153.862 456.894C150.047 456.263 145.931 456.522 142.065 456.499L121.59 456.361L121.48 426.924Z"/>
	<path fill="#FFAEA5" transform="scale(6.01562 5.3125)" d="M484.617 208.095L484.918 208.227L484.856 235.312C484.188 235.894 484.538 235.674 483.829 236.008L420.694 235.861C423.741 235.137 427.655 235.509 430.821 235.498L450.594 235.493L450.799 208.146L484.617 208.095Z"/>
	<path fill="#FED2CC" transform="scale(6.01562 5.3125)" d="M450.828 264.323L485.229 264.385L485.266 266.38L485.216 292.249C481.542 292.822 477.401 292.479 473.673 292.487L451.093 292.457L450.828 264.323Z"/>
	<path fill="#FF9385" transform="scale(6.01562 5.3125)" d="M350.682 152.838L350.614 207.755C348.609 208.381 345 207.831 342.819 207.814L321.12 207.693L317.625 207.423C316.684 205.913 317.224 200.945 317.217 199.013L316.847 178.167L317.322 178.064L350.567 178.379L350.682 152.838Z"/>
	<path fill="#FF665C" transform="scale(6.01562 5.3125)" d="M285.801 118.483L285.848 118.986L286.143 146.843C289.304 147.692 293.97 147.036 297.354 147.037L335.024 147.066L344.654 147.099C346.055 147.108 347.799 146.928 349.142 147.307L348.778 147.349L317.194 147.452L317.044 167.457C317.067 170.871 316.757 174.703 317.322 178.064L316.847 178.167L284.766 178.128L285.42 146.707C286.563 144.663 285.394 123.196 285.801 118.483Z"/>
	<path fill="#F8554A" transform="scale(6.01562 5.3125)" d="M349.142 147.307L350.479 147.515C350.827 149.254 350.698 151.071 350.682 152.838L350.567 178.379L317.322 178.064C316.757 174.703 317.067 170.871 317.044 167.457L317.194 147.452L348.778 147.349L349.142 147.307Z"/>
	<path fill="#F8554A" transform="scale(6.01562 5.3125)" d="M251.962 114.165L252.301 114.207L285.69 114.488L285.801 118.483C285.394 123.196 286.563 144.663 285.42 146.707L252.005 146.213L251.914 114.295L251.962 114.165Z"/>
	<path fill="#AB171E" transform="scale(6.01562 5.3125)" d="M417.68 623.916L452.633 623.74L452.689 655.386L417.809 655.526C418.017 654.92 418.005 654.619 417.952 653.963L417.68 623.916Z"/>
	<path fill="#9E1018" transform="scale(6.01562 5.3125)" d="M317.233 623.119L351.742 623.332C352.658 625.77 352.208 629.607 352.232 632.219L352.334 655.271L352.134 655.594L315.987 655.537L316.142 623.586L317.233 623.119Z"/>
	<path fill="#F8554A" transform="scale(6.01562 5.3125)" d="M518.662 114.018C519.236 120.644 518.924 127.515 518.934 134.169C518.94 137.802 519.571 143.706 518.264 147.011L483.193 147.073L483.353 114.108L518.662 114.018Z"/>
	<path fill="#FEC6BF" transform="scale(6.01562 5.3125)" d="M250.75 207.451C251.326 204.268 250.79 199.838 250.798 196.513L251.247 178.5L251.194 160.179C251.199 157.302 250.905 154.103 251.563 151.291L251.65 178.124L284.766 178.128L316.847 178.167L317.217 199.013C317.224 200.945 316.684 205.913 317.625 207.423L321.12 207.693L317.578 207.734L289.274 207.678L285.466 207.729L262.263 207.692L250.75 207.451Z"/>
	<path fill="#FFB3A9" transform="scale(6.01562 5.3125)" d="M284.766 178.128L316.847 178.167L317.217 199.013C317.224 200.945 316.684 205.913 317.625 207.423L321.12 207.693L317.578 207.734L289.274 207.678C287.879 207.45 286.404 207.447 284.99 207.359L284.717 178.726C283.681 178.137 279.85 178.538 278.498 178.542L258.005 178.584C256.472 178.587 253.287 178.962 251.982 178.342L251.65 178.124L284.766 178.128Z"/>
	<path fill="#F8554A" transform="scale(6.01562 5.3125)" d="M583.751 114.31L647.292 114.337L647.341 133.072C647.347 135.428 647.738 138.602 647.309 140.852L647.102 146.497L612.582 146.673L583.762 146.683L583.751 114.31Z"/>
	<path fill="#FF9385" transform="scale(6.01562 5.3125)" d="M219.13 114.435L251.914 114.295L252.005 146.213L285.42 146.707L284.766 178.128L251.65 178.124L251.563 151.291L251.676 146.317L219.294 146.325L218.994 146.22L219.13 114.435Z"/>
	<path fill="#FF665C" transform="scale(6.01562 5.3125)" d="M647.309 140.852L647.694 181.577L647.559 181.498C646.872 180.966 646.429 180.592 645.545 180.43C640.998 179.599 635.741 180.067 631.125 180.039C626.125 180.01 620.86 179.598 615.894 180.057L615.77 179.736L583.881 179.617L583.863 160.935C583.852 156.769 584.025 152.523 583.538 148.385L583.443 146.784L583.762 146.683L612.582 146.673L647.102 146.497L647.309 140.852Z"/>
	<path fill="#FF8679" transform="scale(6.01562 5.3125)" d="M583.762 146.683L612.582 146.673L615.375 146.928C616.503 148.981 616.039 175.823 615.77 179.736L583.881 179.617L583.863 160.935C583.852 156.769 584.025 152.523 583.538 148.385L583.443 146.784L583.762 146.683Z"/>
	<path fill="#F52B29" transform="scale(6.01562 5.3125)" d="M187.498 114.396L187.823 79.1802L251.774 79.44L251.962 114.165L251.914 114.295L219.13 114.435L187.498 114.396Z"/>
	<path fill="#D21C21" transform="scale(6.01562 5.3125)" d="M452.909 622.759C452.628 618.663 453.162 614.367 453.193 610.238L453.196 596.439C453.195 594.262 452.922 591.726 453.32 589.594C453.958 586.18 453.482 581.958 453.438 578.456L453.143 555.099L484.506 554.844C485.193 554.912 485.654 554.997 486.359 554.88L486.879 554.766L486.811 622.512L452.909 622.759Z"/>
	<path fill="#F52B29" transform="scale(6.01562 5.3125)" d="M615.806 372.675L647.155 372.566L647.075 384.976C647.082 387.125 646.896 389.455 647.307 391.569L647.643 456.318L615.749 456.461L615.681 484.354C614.872 482.156 615.242 479.375 615.242 477.034L615.261 463.119C615.265 461.669 615.648 459.099 614.92 457.853C614.542 454.58 614.812 451.053 614.816 447.75C613.553 445.856 614.782 436.749 614.491 433.781C614.4 432.856 614.119 429.729 614.441 429C614.478 428.918 615.167 428.129 615.188 428.066C615.588 426.823 615.235 423.964 615.241 422.533L615.222 401.25C616.53 399.436 615.897 394.931 615.88 392.634L615.806 372.675Z"/>
	<path fill="red" transform="scale(6.01562 5.3125)" d="M121.916 343.896C126.884 344.008 152.289 343.052 154.446 344.161L154.438 356.575L154.168 401.238L153.829 426.927C146.675 427.517 139.311 427.202 132.129 427.238C129.111 427.252 124.258 427.95 121.48 426.924L121.412 401.194L121.421 383.402C121.426 379.875 121.248 376.248 121.652 372.746C122.265 370.939 122.139 368.244 122.181 366.338L122.237 353.085C122.235 350.317 122.694 346.525 121.916 343.896Z"/>
	<path fill="#FE0000" transform="scale(6.01562 5.3125)" d="M121.412 401.194L154.168 401.238L153.829 426.927C146.675 427.517 139.311 427.202 132.129 427.238C129.111 427.252 124.258 427.95 121.48 426.924L121.412 401.194Z"/>
	<path fill="#FF9385" transform="scale(6.01562 5.3125)" d="M383.848 209.241L417.429 208.986L417.466 171.339C417.463 164.43 416.811 156.759 417.637 149.941L417.682 149.604L417.839 178.721L450.733 178.73L450.694 200.748C450.702 202.324 451.203 206.855 450.314 208.067L450.799 208.146L450.594 235.493L430.821 235.498C427.655 235.509 423.741 235.137 420.694 235.861L384.138 235.838L384.129 235.439C383.62 232.787 383.972 229.514 383.961 226.8L383.848 209.241Z"/>
	<path fill="#FF9D91" transform="scale(6.01562 5.3125)" d="M450.314 208.067L450.799 208.146L450.594 235.493L430.821 235.498C427.655 235.509 423.741 235.137 420.694 235.861L384.138 235.838L384.129 235.439C387.422 235.007 391.202 235.391 394.552 235.392L418.707 235.554C418.097 229.3 418.676 222.581 418.642 216.271C418.629 213.713 418.903 210.747 418.006 208.335L450.314 208.067Z"/>
	<path fill="#FF6E62" transform="scale(6.01562 5.3125)" d="M417.839 178.721L450.733 178.73L450.694 200.748C450.702 202.324 451.203 206.855 450.314 208.067L418.006 208.335C417.356 206.029 417.803 202.252 417.8 199.802L417.839 178.721Z"/>
	<path fill="#F8554A" transform="scale(6.01562 5.3125)" d="M483.161 147.328L484.044 147.762C484.66 151.361 484.469 155.362 484.49 159.015L484.583 178.528L484.924 178.627L484.858 199.914C484.859 202.122 485.362 206.065 484.617 208.095L450.799 208.146L450.314 208.067C451.203 206.855 450.702 202.324 450.694 200.748L450.733 178.73L417.839 178.721L417.682 149.604C417.703 148.692 417.558 148.517 418.125 147.758L483.161 147.328Z"/>
	<path fill="#FF9385" transform="scale(6.01562 5.3125)" d="M450.733 178.73L484.583 178.528L484.924 178.627L484.858 199.914C484.859 202.122 485.362 206.065 484.617 208.095L450.799 208.146L450.314 208.067C451.203 206.855 450.702 202.324 450.694 200.748L450.733 178.73Z"/>
	<path fill="#AB171E" transform="scale(6.01562 5.3125)" d="M351.742 623.332L383.029 623.522L407.166 623.635C410.07 623.641 415.035 623.033 417.68 623.916L417.952 653.963C418.005 654.619 418.017 654.92 417.809 655.526L417.655 664.333L417.683 689.982L352.378 689.86C351.531 686.823 352.136 681.976 352.124 678.749L352.134 655.594L352.334 655.271L352.232 632.219C352.208 629.607 352.658 625.77 351.742 623.332Z"/>
	<path fill="#D21C21" transform="scale(6.01562 5.3125)" d="M383.029 623.522L407.166 623.635C410.07 623.641 415.035 623.033 417.68 623.916L417.952 653.963C418.005 654.619 418.017 654.92 417.809 655.526L417.655 664.333C417.12 661.939 417.282 659.294 417.252 656.849C415.163 656.152 410.916 656.806 408.578 656.832L385.149 656.984L384.961 624.188L383.029 623.522Z"/>
	<path fill="#F53B35" transform="scale(6.01562 5.3125)" d="M519.061 78.4679L583.211 78.1876L583.408 102.596C583.435 106.016 582.897 110.833 583.707 114.065L583.751 114.31L583.762 146.683L583.443 146.784L550.945 146.588L550.461 146.671L528.712 146.675C525.525 146.692 521.794 146.331 518.709 146.946L518.264 147.011C519.571 143.706 518.94 137.802 518.934 134.169C518.924 127.515 519.236 120.644 518.662 114.018C518.203 110.254 518.09 80.1621 519.061 78.4679Z"/>
	<path fill="#FF9385" transform="scale(6.01562 5.3125)" d="M519.061 78.4679L518.879 113.968L550.713 113.961L550.845 135.649C550.847 139.22 550.537 143.055 550.945 146.588L550.461 146.671L528.712 146.675C525.525 146.692 521.794 146.331 518.709 146.946L518.264 147.011C519.571 143.706 518.94 137.802 518.934 134.169C518.924 127.515 519.236 120.644 518.662 114.018C518.203 110.254 518.09 80.1621 519.061 78.4679Z"/>
	<path fill="#FF6E62" transform="scale(6.01562 5.3125)" d="M550.713 113.961L583.707 114.065L583.751 114.31L583.762 146.683L583.443 146.784L550.945 146.588C550.537 143.055 550.847 139.22 550.845 135.649L550.713 113.961Z"/>
	<path fill="#FEC6BF" transform="scale(6.01562 5.3125)" d="M518.709 146.946C521.794 146.331 525.525 146.692 528.712 146.675L550.461 146.671L550.785 179.531L550.822 195.002C551.126 199.003 551.388 204.003 550.81 207.944L550.47 236.683L518.257 236.635L518.561 214.339C518.579 213.436 519.011 209.661 518.73 209.062C518.622 208.833 518.41 208.669 518.25 208.472L515.712 208.414L484.918 208.227L484.617 208.095C485.362 206.065 484.859 202.122 484.858 199.914L484.924 178.627L484.583 178.528L484.49 159.015C484.469 155.362 484.66 151.361 484.044 147.762L483.161 147.328L483.193 147.073L518.264 147.011L518.709 146.946Z"/>
	<path fill="#FFAEA5" transform="scale(6.01562 5.3125)" d="M518.724 176.212C518.944 179.218 519.53 182.269 519.679 185.25C520.056 192.806 519.703 200.524 519.224 208.067L550.528 208.172L550.646 199.583C550.667 198.138 550.508 196.392 550.822 195.002C551.126 199.003 551.388 204.003 550.81 207.944L550.47 236.683L518.257 236.635L518.561 214.339C518.579 213.436 519.011 209.661 518.73 209.062C518.622 208.833 518.41 208.669 518.25 208.472L515.712 208.414C515.736 208.339 517.981 207.984 518.559 207.562L518.482 188.923C518.449 184.715 518.202 180.391 518.724 176.212Z"/>
	<path fill="#FF8679" transform="scale(6.01562 5.3125)" d="M518.264 147.011L518.709 146.946L518.724 176.212C518.202 180.391 518.449 184.715 518.482 188.923L518.559 207.562C517.981 207.984 515.736 208.339 515.712 208.414L484.918 208.227L484.617 208.095C485.362 206.065 484.859 202.122 484.858 199.914L484.924 178.627L484.583 178.528L484.49 159.015C484.469 155.362 484.66 151.361 484.044 147.762L483.161 147.328L483.193 147.073L518.264 147.011Z"/>
	<path fill="#FF9D91" transform="scale(6.01562 5.3125)" d="M518.264 147.011L518.709 146.946L518.724 176.212C518.202 180.391 518.449 184.715 518.482 188.923L518.559 207.562C517.981 207.984 515.736 208.339 515.712 208.414L484.918 208.227L484.617 208.095C485.362 206.065 484.859 202.122 484.858 199.914L484.924 178.627C488.206 178.142 492.028 178.499 495.362 178.491L518.308 178.558L518.264 147.011Z"/>
	<path fill="#FE0000" transform="scale(6.01562 5.3125)" d="M121.104 114.758C122.516 114.075 124.749 114.386 126.3 114.383L139.899 114.366L187.498 114.396L219.13 114.435L218.994 146.22C216.183 146.926 212.77 146.623 209.874 146.628L193.062 146.604C191.346 146.604 187.937 146.135 186.461 146.982L186.365 178.375L165.104 178.302C161.356 178.301 157.494 178.125 153.769 178.539C151.197 179.53 146.112 178.92 143.268 178.915C136.031 178.903 128.584 179.236 121.38 178.536L120.596 178.613L120.74 147.821L120.765 125.393C120.772 122.159 120.274 117.845 121.104 114.758Z"/>
	<path fill="#F8554A" transform="scale(6.01562 5.3125)" d="M186.325 146.746L186.461 146.982L186.365 178.375L165.104 178.302C161.356 178.301 157.494 178.125 153.769 178.539L153.668 174.575L153.704 147.267L176.246 147.193C179.126 147.188 183.03 147.593 185.785 146.894L186.325 146.746Z"/>
	<path fill="red" transform="scale(6.01562 5.3125)" d="M120.74 147.821L121.5 146.981L121.801 147.102C124.866 148.206 129.667 147.447 132.938 147.434L153.381 147.352L153.414 164.868C153.409 167.954 153.024 171.558 153.668 174.575L153.769 178.539C151.197 179.53 146.112 178.92 143.268 178.915C136.031 178.903 128.584 179.236 121.38 178.536L120.596 178.613L120.74 147.821Z"/>
	<path fill="#FF6E62" transform="scale(6.01562 5.3125)" d="M121.104 114.758C122.516 114.075 124.749 114.386 126.3 114.383L139.899 114.366L187.498 114.396L219.13 114.435L218.994 146.22C216.183 146.926 212.77 146.623 209.874 146.628L193.062 146.604C191.346 146.604 187.937 146.135 186.461 146.982L186.325 146.746L186.475 114.571L121.104 114.758Z"/>
	<path fill="#FF625C" transform="scale(6.01562 5.3125)" d="M550.461 146.671L550.945 146.588L583.443 146.784L583.538 148.385C584.025 152.523 583.852 156.769 583.863 160.935L583.881 179.617L615.77 179.736L615.894 180.057L615.749 201.311C615.749 203.426 615.185 207.584 616.18 209.436L615.916 209.557C615.43 212.788 615.661 216.27 615.65 219.538L615.454 236.945L583.826 236.932L583.821 264.461C581.571 265.232 577.581 264.706 575.094 264.71C567.076 264.725 558.96 264.94 550.958 264.436L550.699 263.333L550.548 236.924L550.47 236.683L550.81 207.944C551.388 204.003 551.126 199.003 550.822 195.002L550.785 179.531L550.461 146.671Z"/>
	<path fill="#FF6E62" transform="scale(6.01562 5.3125)" d="M583.881 179.617L615.77 179.736L615.894 180.057L615.749 201.311C615.749 203.426 615.185 207.584 616.18 209.436L615.916 209.557L583.679 209.869L583.804 204.094L583.881 179.617Z"/>
	<path fill="#FF9385" transform="scale(6.01562 5.3125)" d="M550.81 207.944L583.432 208.1L583.456 204.576L583.804 204.094L583.679 209.869L583.664 236.943L550.548 236.924L550.47 236.683L550.81 207.944Z"/>
	<path fill="#FFAEA5" transform="scale(6.01562 5.3125)" d="M550.461 146.671L550.945 146.588L583.443 146.784L583.538 148.385C584.025 152.523 583.852 156.769 583.863 160.935L583.881 179.617L583.804 204.094L583.456 204.576L583.432 208.1L550.81 207.944C551.388 204.003 551.126 199.003 550.822 195.002L550.785 179.531L550.461 146.671Z"/>
	<path fill="#FF9D91" transform="scale(6.01562 5.3125)" d="M583.538 148.385C584.025 152.523 583.852 156.769 583.863 160.935L583.881 179.617L583.804 204.094L583.456 204.576L583.432 208.1L550.81 207.944C551.388 204.003 551.126 199.003 550.822 195.002L550.785 179.531L583.621 179.606L583.538 148.385Z"/>
	<path fill="#FE0000" transform="scale(6.01562 5.3125)" d="M154.168 401.238L186.721 401.208L186.836 429.906L186.799 457.636L219.44 457.573L219.542 488.314L219.747 489.706L245.058 489.673L251.834 489.765L251.593 520.643L251.726 521.803L251.919 521.939L252.23 543.351C252.269 546.246 252.824 550.217 252.236 553.011C252.086 553.725 251.618 554.286 251.156 554.821L219.034 554.738L219.1 532.333C219.126 528.812 218.795 524.831 219.398 521.373L154.522 521.15L154.042 457.232L153.862 456.894L153.829 426.927L154.168 401.238Z"/>
	<path fill="red" transform="scale(6.01562 5.3125)" d="M154.168 401.238L186.721 401.208L186.836 429.906L186.799 457.636L219.44 457.573L219.542 488.314L219.436 489.375C217.895 490.678 190.858 489.861 186.934 489.836L186.91 457.806L165.445 457.851C161.989 457.837 157.739 458.27 154.413 457.346L154.042 457.232L153.862 456.894L153.829 426.927L154.168 401.238Z"/>
	<path fill="#F53B35" transform="scale(6.01562 5.3125)" d="M615.894 180.057C620.86 179.598 626.125 180.01 631.125 180.039C635.741 180.067 640.998 179.599 645.545 180.43C646.429 180.592 646.872 180.966 647.559 181.498L647.694 181.577L648.37 181.68C652.737 182.298 657.908 181.811 662.362 181.815L693.337 181.844C698.81 181.853 704.608 181.486 710.032 182.079L710.303 221.82L710.326 231.595C710.328 232.868 710.539 234.544 710.259 235.778L710.215 371.984L647.52 372.448L647.474 384.544C647.463 386.838 647.639 389.299 647.307 391.569C646.896 389.455 647.082 387.125 647.075 384.976L647.155 372.566L647.13 343.473L678.934 343.517L678.85 264.281L678.741 236.977L676.955 237.04C673.54 236.653 669.879 236.925 666.425 236.919L647.324 236.985L615.663 237.035L615.454 236.945L615.65 219.538C615.661 216.27 615.43 212.788 615.916 209.557L616.18 209.436C615.185 207.584 615.749 203.426 615.749 201.311L615.894 180.057Z"/>
	<path fill="#F8554A" transform="scale(6.01562 5.3125)" d="M615.894 180.057C620.86 179.598 626.125 180.01 631.125 180.039C635.741 180.067 640.998 179.599 645.545 180.43C646.429 180.592 646.872 180.966 647.559 181.498L647.694 181.577L648.37 181.68C652.737 182.298 657.908 181.811 662.362 181.815L693.337 181.844C698.81 181.853 704.608 181.486 710.032 182.079L710.303 221.82L710.326 231.595C710.328 232.868 710.539 234.544 710.259 235.778L709.83 235.447L709.875 232.312C709.938 231.037 709.977 229.631 709.772 228.373C709.592 227.271 709.903 226.172 709.871 225.057L709.683 213.619C709.684 212.343 709.993 210.088 709.316 209.062L709.414 208.535C709.539 207.768 709.521 208.119 709.408 207.375C708.98 204.55 709.568 201.28 709.408 198.375C709.136 193.415 709.468 188.24 709.347 183.251L709.397 182.733L670.693 182.817C669.771 182.799 669.014 182.431 668.072 182.41L656.331 182.419C654.51 182.428 652.212 182.187 650.469 182.658C649.624 182.886 649.443 182.66 648.646 182.491L647.732 182.421L647.434 207.939C648.583 207.934 649.764 207.879 650.906 207.991C652.999 208.196 655.352 207.934 657.48 207.929L672.188 208.125L673.5 208.033C674.784 207.968 676.064 208.1 677.346 207.975C677.912 207.919 678.353 208.023 678.901 208.144C679.553 209.217 679.351 233.093 679.229 236.381L678.741 236.977L676.955 237.04C673.54 236.653 669.879 236.925 666.425 236.919L647.324 236.985L615.663 237.035L615.454 236.945L615.65 219.538C615.661 216.27 615.43 212.788 615.916 209.557L616.18 209.436C615.185 207.584 615.749 203.426 615.749 201.311L615.894 180.057Z"/>
	<path fill="#FF6E62" transform="scale(6.01562 5.3125)" d="M647.169 208.945L678.684 208.578L678.741 236.977L676.955 237.04C673.54 236.653 669.879 236.925 666.425 236.919L647.324 236.985L647.169 208.945Z"/>
	<path fill="#FF665C" transform="scale(6.01562 5.3125)" d="M616.18 209.436C619.331 208.959 622.95 209.221 626.157 209.176L647.169 208.945L647.324 236.985L615.663 237.035L615.454 236.945L615.65 219.538C615.661 216.27 615.43 212.788 615.916 209.557L616.18 209.436Z"/>
	<defs>
		<linearGradient id="gradient_0" gradientUnits="userSpaceOnUse" x1="135.56215" y1="333.75174" x2="32.063442" y2="204.37341">
			<stop offset="0" stop-color="#EA0D0E"/>
			<stop offset="1" stop-color="#EC5548"/>
		</linearGradient>
	</defs>
	<path fill="url(#gradient_0)" transform="scale(6.01562 5.3125)" d="M120.596 178.613L121.38 178.536C120.978 181.736 121.278 185.06 121.32 188.285L121.439 207.618L121.749 207.736L121.876 235.821L121.823 256.655L121.924 262.826C121.924 264.592 122.074 266.5 121.807 268.243L121.923 289.923L121.79 290.359L121.882 316.868L121.883 335.595C121.892 338.25 122.218 341.274 121.916 343.896C118.162 344.525 113.983 344.223 110.166 344.237L89.9446 344.188C88.9523 345.665 89.3531 348.866 89.3299 350.716L89.0765 366.757C89.0505 367.828 89.2039 370.731 88.7296 371.57C88.492 371.99 87.9641 372.383 87.6707 372.813L58.553 372.936L58.7574 182.449L59.6254 181.844L88.2928 181.584C92.464 181.484 119.239 181.957 120.562 180.988L120.596 178.613Z"/>
	<path fill="#F8554A" transform="scale(6.01562 5.3125)" d="M59.6254 181.844L88.2928 181.584C86.1172 182.682 83.6245 182.437 81.237 182.458C82.0567 183.43 82.0055 183.47 82.036 184.753C81.626 185.437 81.5949 185.493 81.6443 186.285C80.8321 186.486 80.0722 186.603 79.2465 186.698C78.9063 186.737 78.5806 186.862 78.2426 186.917C77.2836 187.075 76.5316 186.672 75.6449 186.381C74.9039 186.138 75.2069 186.205 74.3385 186.271L73.9456 185.473L72.6096 185.27L72.3326 184.224C72.0148 183.456 71.7066 183.296 70.9676 182.984L70.5842 182.48L66.1782 182.873C65.5016 182.913 65.6894 182.877 65.0154 182.646C63.6635 182.184 60.1808 182.914 59.6254 181.844Z"/>
	<path fill="red" transform="scale(6.01562 5.3125)" d="M92.165 290.122L113.034 290.214C115.691 290.208 119.232 289.742 121.79 290.359L121.882 316.868L121.883 335.595C121.892 338.25 122.218 341.274 121.916 343.896C118.162 344.525 113.983 344.223 110.166 344.237L89.9446 344.188C89.5267 342.018 89.9649 339.074 89.9861 336.799L90.4515 311.55L90.4993 297.38C90.5032 295.232 90.1957 292.574 90.881 290.54L92.165 290.122Z"/>
	<path fill="#FF6963" transform="scale(6.01562 5.3125)" d="M121.439 207.618L121.749 207.736L121.876 235.821L121.823 256.655L121.924 262.826C121.924 264.592 122.074 266.5 121.807 268.243L121.923 289.923L121.79 290.359C119.232 289.742 115.691 290.208 113.034 290.214L92.165 290.122L90.75 289.854C89.7023 288.072 90.2992 266.618 90.2526 262.938L90.0392 232.792L90.0211 207.873L121.439 207.618Z"/>
	<path fill="#F8554A" transform="scale(6.01562 5.3125)" d="M90.0392 232.792L90.5625 236.186C93.7058 236.58 97.2154 236.164 100.394 236.129L121.5 235.77L121.823 256.655L121.924 262.826C121.924 264.592 122.074 266.5 121.807 268.243L121.581 262.683L90.2526 262.938L90.0392 232.792Z"/>
	<path fill="#F53B35" transform="scale(6.01562 5.3125)" d="M90.2526 262.938L121.581 262.683L121.807 268.243L121.923 289.923L121.79 290.359C119.232 289.742 115.691 290.208 113.034 290.214L92.165 290.122L90.75 289.854C89.7023 288.072 90.2992 266.618 90.2526 262.938Z"/>
	<path fill="#FF8679" transform="scale(6.01562 5.3125)" d="M218.994 146.22L219.294 146.325L251.676 146.317L251.563 151.291C250.905 154.103 251.199 157.302 251.194 160.179L251.247 178.5L250.798 196.513C250.79 199.838 251.326 204.268 250.75 207.451L218.832 207.477L186.708 207.874L186.687 222.878C186.638 226.613 186.751 230.435 186.265 234.139C186.204 234.608 186.209 235.026 186.257 235.496L186.418 262.451L186.583 289.816L154.542 289.975L154.454 290.167C151.752 289.915 148.82 290.186 146.098 290.205L129.759 290.252C127.513 290.253 124.004 290.734 121.923 289.923L121.807 268.243C122.074 266.5 121.924 264.592 121.924 262.826L121.823 256.655L121.876 235.821L121.749 207.736L121.439 207.618L121.32 188.285C121.278 185.06 120.978 181.736 121.38 178.536C128.584 179.236 136.031 178.903 143.268 178.915C146.112 178.92 151.197 179.53 153.769 178.539C157.494 178.125 161.356 178.301 165.104 178.302L186.365 178.375L186.461 146.982C187.937 146.135 191.346 146.604 193.062 146.604L209.874 146.628C212.77 146.623 216.183 146.926 218.994 146.22Z"/>
	<path fill="#FF665C" transform="scale(6.01562 5.3125)" d="M121.876 235.821L154.105 235.537L154.249 249.457C154.217 252.346 153.834 255.95 154.446 258.77L154.528 262.487L154.497 265.266L154.149 262.875C153.953 262.735 153.784 262.548 153.562 262.455C152.619 262.061 148.51 262.616 147.188 262.635L121.924 262.826L121.823 256.655L121.876 235.821Z"/>
	<path fill="#FF625C" transform="scale(6.01562 5.3125)" d="M121.924 262.826L147.188 262.635C148.51 262.616 152.619 262.061 153.562 262.455C153.784 262.548 153.953 262.735 154.149 262.875L154.497 265.266L154.542 289.975L154.454 290.167C151.752 289.915 148.82 290.186 146.098 290.205L129.759 290.252C127.513 290.253 124.004 290.734 121.923 289.923L121.807 268.243C122.074 266.5 121.924 264.592 121.924 262.826Z"/>
	<path fill="#F8554A" transform="scale(6.01562 5.3125)" d="M153.769 178.539L154.115 207.513L121.749 207.736L121.439 207.618L121.32 188.285C121.278 185.06 120.978 181.736 121.38 178.536C128.584 179.236 136.031 178.903 143.268 178.915C146.112 178.92 151.197 179.53 153.769 178.539Z"/>
	<path fill="#FF9D91" transform="scale(6.01562 5.3125)" d="M154.447 235.529L186.257 235.496L186.418 262.451L186.583 289.816L154.542 289.975L154.497 265.266L154.528 262.487L154.446 258.77L154.447 235.529Z"/>
	<path fill="#FFB3A9" transform="scale(6.01562 5.3125)" d="M154.447 235.529L186.257 235.496L186.418 262.451L154.528 262.487L154.446 258.77L154.447 235.529Z"/>
	<path fill="white" transform="scale(6.01562 5.3125)" d="M218.994 146.22L219.294 146.325L251.676 146.317L251.563 151.291C250.905 154.103 251.199 157.302 251.194 160.179L251.247 178.5L250.798 196.513C250.79 199.838 251.326 204.268 250.75 207.451L218.832 207.477L186.708 207.874L186.687 222.878C186.638 226.613 186.751 230.435 186.265 234.139C186.204 234.608 186.209 235.026 186.257 235.496L154.447 235.529L154.21 207.489L179.734 207.463C181.262 207.458 185.672 207.894 186.626 207.203L186.642 203.155C185.897 202.144 186.277 198.555 186.274 197.185L186.365 178.375L186.461 146.982C187.937 146.135 191.346 146.604 193.062 146.604L209.874 146.628C212.77 146.623 216.183 146.926 218.994 146.22Z"/>
	<path fill="#FF9D91" transform="scale(6.01562 5.3125)" d="M218.994 146.22L219.294 146.325C218.636 150.301 219.029 154.904 219.038 158.962C219.052 165.297 218.831 171.798 219.247 178.114L186.672 178.096L186.642 203.155C185.897 202.144 186.277 198.555 186.274 197.185L186.365 178.375L186.461 146.982C187.937 146.135 191.346 146.604 193.062 146.604L209.874 146.628C212.77 146.623 216.183 146.926 218.994 146.22Z"/>
	<path fill="#FED2CC" transform="scale(6.01562 5.3125)" d="M219.294 146.325L251.676 146.317L251.563 151.291C250.905 154.103 251.199 157.302 251.194 160.179L251.247 178.5L250.798 196.513C250.79 199.838 251.326 204.268 250.75 207.451L218.832 207.477C219.561 203.294 218.929 198.155 218.924 193.825L219.247 178.114C218.831 171.798 219.052 165.297 219.038 158.962C219.029 154.904 218.636 150.301 219.294 146.325Z"/>
	<path fill="#FF6963" transform="scale(6.01562 5.3125)" d="M484.918 208.227L515.712 208.414L518.25 208.472C518.41 208.669 518.622 208.833 518.73 209.062C519.011 209.661 518.579 213.436 518.561 214.339L518.257 236.635L550.47 236.683L550.548 236.924L550.699 263.333L550.958 264.436C558.96 264.94 567.076 264.725 575.094 264.71C577.581 264.706 581.571 265.232 583.821 264.461L583.893 264.689L583.49 292.312C582.851 292.604 582.563 292.607 581.874 292.493L581.229 292.775C579.754 293.368 577.385 293.087 575.779 293.088L564.297 293.069C562.43 293.069 561.122 293.601 559.239 293.16C557.01 292.638 553.771 293.059 551.434 293.059C551.436 301.37 551.37 369.061 550.316 370.125L550.321 386.385C550.323 388.989 550.031 391.891 550.44 394.439L550.269 400.69C547.423 400.69 525.241 400.304 524.438 400.691C524.278 400.768 524.188 400.941 524.062 401.066L520.255 401.06C519.243 400.832 518.361 400.637 517.312 400.691L516.75 401.066L485.625 401.062L485.442 399.892C485.322 401.141 485.406 401.161 484.5 402.006C480.537 402.058 476.138 402.501 472.231 401.952L472.554 401.529L484.691 401.452L484.811 373.937L518.123 373.48L518.219 345.996C513.443 345.519 508.386 346.024 503.569 346.076L489.993 346.236C488.374 346.311 486.349 346.23 484.873 346.873L484.914 319.513L485.323 292.472L485.216 292.249L485.266 266.38L485.229 264.385L485.252 236.263L483.829 236.008C484.538 235.674 484.188 235.894 484.856 235.312L484.918 208.227Z"/>
	<path fill="#FF665C" transform="scale(6.01562 5.3125)" d="M550.958 264.436C558.96 264.94 567.076 264.725 575.094 264.71C577.581 264.706 581.571 265.232 583.821 264.461L583.893 264.689L583.49 292.312C582.851 292.604 582.563 292.607 581.874 292.493L550.928 292.394L550.856 313.688L550.594 313.873L550.5 293.059L524.211 293.046C522.642 293.094 520.57 292.71 519.099 293.177L518.978 313.178L518.71 313.381C518.152 311.51 518.609 308.032 518.617 305.977C518.634 301.501 518.212 296.878 518.59 292.439C520.931 291.743 525.138 292.389 527.676 292.401L550.845 292.463L550.958 264.436Z"/>
	<path fill="#FF8679" transform="scale(6.01562 5.3125)" d="M550.699 263.333L550.958 264.436L550.845 292.463L527.676 292.401C525.138 292.389 520.931 291.743 518.59 292.439C518.212 296.878 518.634 301.501 518.617 305.977C518.609 308.032 518.152 311.51 518.71 313.381C518.776 315.563 518.911 317.59 518.517 319.739L518.219 345.996C513.443 345.519 508.386 346.024 503.569 346.076L489.993 346.236C488.374 346.311 486.349 346.23 484.873 346.873L484.914 319.513L485.323 292.472L518.233 292.375L518.226 264.273L550.125 264.259L550.699 263.333Z"/>
	<path fill="#FF625C" transform="scale(6.01562 5.3125)" d="M484.914 319.513C488.077 318.998 491.9 319.365 495.131 319.355L518.082 319.547C518.122 315.773 517.588 294.549 518.369 292.874L518.59 292.439C518.212 296.878 518.634 301.501 518.617 305.977C518.609 308.032 518.152 311.51 518.71 313.381C518.776 315.563 518.911 317.59 518.517 319.739L518.219 345.996C513.443 345.519 508.386 346.024 503.569 346.076L489.993 346.236C488.374 346.311 486.349 346.23 484.873 346.873L484.914 319.513Z"/>
	<path fill="#FF9D91" transform="scale(6.01562 5.3125)" d="M484.918 208.227L515.712 208.414L518.25 208.472C518.41 208.669 518.622 208.833 518.73 209.062C519.011 209.661 518.579 213.436 518.561 214.339L518.257 236.635L550.47 236.683L550.548 236.924L550.699 263.333L550.125 264.259L518.226 264.273L518.233 292.375L485.323 292.472L485.216 292.249L485.266 266.38L485.229 264.385L485.252 236.263L483.829 236.008C484.538 235.674 484.188 235.894 484.856 235.312L484.918 208.227Z"/>
	<path fill="#FFAEA5" transform="scale(6.01562 5.3125)" d="M485.252 236.263L518.257 236.635L518.291 264.316L496.187 264.342C493.094 264.325 488.607 263.715 485.725 264.447L485.266 266.38L485.229 264.385L485.252 236.263Z"/>
	<path fill="#FEC6BF" transform="scale(6.01562 5.3125)" d="M484.918 208.227L515.712 208.414L518.25 208.472C518.41 208.669 518.622 208.833 518.73 209.062C519.011 209.661 518.579 213.436 518.561 214.339L518.257 236.635L485.252 236.263L483.829 236.008C484.538 235.674 484.188 235.894 484.856 235.312L484.918 208.227Z"/>
	<defs>
		<linearGradient id="gradient_1" gradientUnits="userSpaceOnUse" x1="218.92897" y1="343.6124" x2="219.44598" y2="207.65045">
			<stop offset="0" stop-color="#FED1CC"/>
			<stop offset="1" stop-color="#FFF0ED"/>
		</linearGradient>
	</defs>
	<path fill="url(#gradient_1)" transform="scale(6.01562 5.3125)" d="M250.75 207.451L262.263 207.692L261.797 207.728L251.762 207.929L251.61 227.289C251.601 230.464 251.2 234.353 252.032 237.391C251.959 238.371 251.967 239.431 251.698 240.375C251.256 241.929 251.559 244.421 251.548 246.071L251.832 264.97L251.895 282.995C251.894 285.52 251.375 289.641 252.273 291.928L252.356 299.475C252.348 300.309 252.534 301.813 252.324 302.581C252.241 302.884 251.895 303.071 251.816 303.375C251.599 304.215 251.82 305.842 251.821 306.749L251.88 324.668C251.913 328.569 252.18 333.116 251.625 336.938C251.462 338.062 251.515 339.207 251.75 340.312C251.266 341.489 251.732 342.934 251.875 344.214L251.922 344.395L219.952 344.341L197.765 344.244C194.241 344.241 190.221 344.617 186.786 343.997L186.671 344.23C183.285 343.241 177.613 344.014 174.009 344.048L154.546 343.923L154.446 344.161C152.289 343.052 126.884 344.008 121.916 343.896C122.218 341.274 121.892 338.25 121.883 335.595L121.882 316.868L121.79 290.359L121.923 289.923C124.004 290.734 127.513 290.253 129.759 290.252L146.098 290.205C148.82 290.186 151.752 289.915 154.454 290.167L154.542 289.975L186.583 289.816L186.418 262.451L186.257 235.496C186.209 235.026 186.204 234.608 186.265 234.139C186.751 230.435 186.638 226.613 186.687 222.878L186.708 207.874L218.832 207.477L250.75 207.451Z"/>
	<path fill="#FF8679" transform="scale(6.01562 5.3125)" d="M154.542 289.975L186.583 289.816L186.712 324.487L186.786 343.997L186.671 344.23C183.285 343.241 177.613 344.014 174.009 344.048L154.546 343.923L154.469 317.11L154.583 316.829L154.454 290.167L154.542 289.975Z"/>
	<path fill="#FF625C" transform="scale(6.01562 5.3125)" d="M154.583 316.829C157.143 317.568 160.53 317.206 163.239 317.238L186.43 317.164C186.418 319.61 186.325 322.065 186.712 324.487L186.786 343.997L186.671 344.23C183.285 343.241 177.613 344.014 174.009 344.048L154.546 343.923L154.469 317.11L154.583 316.829Z"/>
	<path fill="#F52B29" transform="scale(6.01562 5.3125)" d="M121.923 289.923C124.004 290.734 127.513 290.253 129.759 290.252L146.098 290.205C148.82 290.186 151.752 289.915 154.454 290.167L154.583 316.829L154.469 317.11L154.546 343.923L154.446 344.161C152.289 343.052 126.884 344.008 121.916 343.896C122.218 341.274 121.892 338.25 121.883 335.595L121.882 316.868L121.79 290.359L121.923 289.923Z"/>
	<path fill="#FF3D3C" transform="scale(6.01562 5.3125)" d="M121.923 289.923C124.004 290.734 127.513 290.253 129.759 290.252L146.098 290.205C148.82 290.186 151.752 289.915 154.454 290.167L154.583 316.829L154.469 317.11C152.072 316.349 147.719 316.885 145.126 316.886L121.882 316.868L121.79 290.359L121.923 289.923Z"/>
	<path fill="#F8554A" transform="scale(6.01562 5.3125)" d="M647.324 236.985L666.425 236.919C669.879 236.925 673.54 236.653 676.955 237.04L678.741 236.977L678.85 264.281L678.934 343.517L647.13 343.473L647.155 372.566L615.806 372.675L583.982 372.938L583.629 371.25L583.064 372.254C582.135 372.218 581.676 372.032 580.875 372.566C579.808 372.565 578.775 372.79 577.875 372.191L577.532 372.379C576.535 372.778 575.019 372.587 573.934 372.562L573.375 372.191L572.434 372.562L571.875 372.191L562.312 372.191L561.938 372.566L550.796 372.566L550.681 387.825C550.681 389.676 551.071 392.796 550.44 394.439C550.031 391.891 550.323 388.989 550.321 386.385L550.316 370.125C551.37 369.061 551.436 301.37 551.434 293.059C553.771 293.059 557.01 292.638 559.239 293.16C561.122 293.601 562.43 293.069 564.297 293.069L575.779 293.088C577.385 293.087 579.754 293.368 581.229 292.775L581.874 292.493C582.563 292.607 582.851 292.604 583.49 292.312L583.893 264.689L583.821 264.461L583.826 236.932L615.454 236.945L615.663 237.035L647.324 236.985Z"/>
	<path fill="#FF625C" transform="scale(6.01562 5.3125)" d="M647.324 236.985L666.425 236.919C669.879 236.925 673.54 236.653 676.955 237.04L676.554 237.095C672.965 237.543 669.189 237.325 665.573 237.329L647.302 237.292L647.32 264.39C639.463 264.921 631.464 264.681 623.588 264.665C621.592 264.66 618.186 264.166 616.312 264.628C616.268 264.639 615.656 265.111 615.642 265.125L615.469 265.417L614.731 265.365C608.268 264.94 601.729 265.326 595.258 265.304L588.08 265.27C586.921 265.263 585.528 265.085 584.434 265.422L584.418 283.6C584.413 286.863 584.679 290.378 584.162 293.599C583.994 294.645 584.371 295.271 584.136 296.362C583.539 299.135 583.996 303.057 583.974 305.942L583.553 326.874L583.487 339.188C583.478 341.41 583.724 343.991 583.127 346.127C582.492 348.401 582.597 369.487 583.064 372.254C582.135 372.218 581.676 372.032 580.875 372.566C579.808 372.565 578.775 372.79 577.875 372.191L577.532 372.379C576.535 372.778 575.019 372.587 573.934 372.562L573.375 372.191L572.434 372.562L571.875 372.191L562.312 372.191L561.938 372.566L550.796 372.566L550.681 387.825C550.681 389.676 551.071 392.796 550.44 394.439C550.031 391.891 550.323 388.989 550.321 386.385L550.316 370.125C551.37 369.061 551.436 301.37 551.434 293.059C553.771 293.059 557.01 292.638 559.239 293.16C561.122 293.601 562.43 293.069 564.297 293.069L575.779 293.088C577.385 293.087 579.754 293.368 581.229 292.775L581.874 292.493C582.563 292.607 582.851 292.604 583.49 292.312L583.893 264.689L583.821 264.461L583.826 236.932L615.454 236.945L615.663 237.035L647.324 236.985Z"/>
	<path fill="#FF6E62" transform="scale(6.01562 5.3125)" d="M615.454 236.945L615.663 237.035L615.527 264.615L583.893 264.689L583.821 264.461L583.826 236.932L615.454 236.945Z"/>
	<path fill="#FF3D3C" transform="scale(6.01562 5.3125)" d="M583.629 371.25L583.825 343.773C584.985 343.089 606.597 343.521 609.75 343.527C611.446 343.53 614.236 343.968 615.743 343.34C617.243 342.713 618.327 343.129 619.875 343.033C628.702 342.487 637.826 342.936 646.691 342.941L647.425 264.391L678.85 264.281L678.934 343.517L647.13 343.473L647.155 372.566L615.806 372.675L583.982 372.938L583.629 371.25Z"/>
	<path fill="#FEDAD6" transform="scale(6.01562 5.3125)" d="M252.273 291.928L283.688 291.934L284.344 292.179C284.5 292.036 284.618 291.834 284.812 291.75C285.293 291.542 286.961 291.713 287.509 291.713L296.702 291.712L364.155 292.186L417.475 292.072L417.516 279.188C418.136 279.882 417.745 290.26 417.75 291.941L446.812 291.941L447.188 291.566L448.125 291.566L448.753 291.809C449.573 292.014 449.878 292.023 450.562 291.566C449.678 290.218 450.191 268.236 450.191 264.75L429.291 264.762C425.659 264.761 421.787 265.023 418.189 264.585C421.46 263.962 425.42 264.34 428.777 264.333L450.828 264.323L451.093 292.457L473.673 292.487C477.401 292.479 481.542 292.822 485.216 292.249L485.323 292.472L484.914 319.513L484.873 346.873L450.835 346.923L450.399 346.861L417.544 346.633L417.49 374.147C417.419 375.616 417.281 377.106 417.437 378.572L417.348 394.01C417.332 396.313 417.663 399.218 417.062 401.438C415.957 401.596 414.952 401.598 413.838 401.547L384.005 401.474C380.741 401.1 377.024 401.469 373.715 401.472L349.526 401.549L349.453 401.315L337.138 401.275C334.789 400.933 332.277 401.097 329.902 401.096L315.938 401.235L284.317 401.222C283.913 398.877 284.304 395.797 284.314 393.386L284.29 373.078L298.622 373.248C300.578 373.274 303.066 373.594 304.969 373.174L305.471 373.053L305.193 372.597L285.338 372.497C284.536 372.41 284.688 372.479 284.091 372.938C280.462 373.682 275.524 373.069 271.766 373.056C265.449 373.033 258.181 373.812 252.002 372.745L251.922 344.395L251.875 344.214C251.732 342.934 251.266 341.489 251.75 340.312C251.515 339.207 251.462 338.062 251.625 336.938C252.18 333.116 251.913 328.569 251.88 324.668L251.821 306.749C251.82 305.842 251.599 304.215 251.816 303.375C251.895 303.071 252.241 302.884 252.324 302.581C252.534 301.813 252.348 300.309 252.356 299.475L252.273 291.928Z"/>
	<path fill="#FED2CC" transform="scale(6.01562 5.3125)" d="M363.58 346.078C366.48 345.556 369.669 345.768 372.613 345.745L392.497 345.921L417.244 346.066L417.01 319.268L450.755 319.506C450.758 323.598 451.422 344.685 450.399 346.861L417.544 346.633C415.66 346.799 413.483 346.313 411.539 346.324L389.543 346.316C380.945 346.169 372.145 346.648 363.58 346.078Z"/>
	<path fill="#FFAEA5" transform="scale(6.01562 5.3125)" d="M485.216 292.249L485.323 292.472L484.914 319.513L484.873 346.873L450.835 346.923L450.399 346.861C451.422 344.685 450.758 323.598 450.755 319.506L451.093 292.457L473.673 292.487C477.401 292.479 481.542 292.822 485.216 292.249Z"/>
	<path fill="#FFB3A9" transform="scale(6.01562 5.3125)" d="M485.216 292.249L485.323 292.472L484.914 319.513L450.755 319.506L451.093 292.457L473.673 292.487C477.401 292.479 481.542 292.822 485.216 292.249Z"/>
	<path fill="#FEC6BF" transform="scale(6.01562 5.3125)" d="M305.471 373.053C308.61 372.744 313.062 372.52 316.142 373.064C318.52 373.484 320.691 373.121 323.062 373.141L349.334 373.296L349.315 346.015L363.58 346.078C372.145 346.648 380.945 346.169 389.543 346.316L411.539 346.324C413.483 346.313 415.66 346.799 417.544 346.633L417.49 374.147C417.419 375.616 417.281 377.106 417.437 378.572L417.348 394.01C417.332 396.313 417.663 399.218 417.062 401.438C415.957 401.596 414.952 401.598 413.838 401.547L384.005 401.474C380.741 401.1 377.024 401.469 373.715 401.472L349.526 401.549L349.453 401.315L337.138 401.275C334.789 400.933 332.277 401.097 329.902 401.096L315.938 401.235L284.317 401.222C283.913 398.877 284.304 395.797 284.314 393.386L284.29 373.078L298.622 373.248C300.578 373.274 303.066 373.594 304.969 373.174L305.471 373.053Z"/>
	<path fill="#FFAEA5" transform="scale(6.01562 5.3125)" d="M349.453 401.315L349.55 373.754L360.16 373.904L417.49 374.147C417.419 375.616 417.281 377.106 417.437 378.572L417.348 394.01C417.332 396.313 417.663 399.218 417.062 401.438C415.957 401.596 414.952 401.598 413.838 401.547L384.005 401.474C380.741 401.1 377.024 401.469 373.715 401.472L349.526 401.549L349.453 401.315Z"/>
	<path fill="#FFB3A9" transform="scale(6.01562 5.3125)" d="M360.16 373.904L417.49 374.147C417.419 375.616 417.281 377.106 417.437 378.572L417.348 394.01C417.332 396.313 417.663 399.218 417.062 401.438C415.957 401.596 414.952 401.598 413.838 401.547C410.878 400.686 406.731 401.175 403.624 401.169L384.457 401.069L384.217 374.514C382.557 374.132 380.602 374.338 378.898 374.336L367.041 374.3C364.875 374.289 362.591 374.463 360.468 373.981L360.16 373.904Z"/>
	<path fill="#FE0000" transform="scale(6.01562 5.3125)" d="M483.865 489.637C484.19 489.713 484.74 489.86 485.062 489.849L550.691 489.566L550.691 458.066L582.75 458.066C584.279 457.047 597.367 457.691 600.188 457.691L600.562 457.316L604.5 457.408C607.293 457.219 610.214 457.635 612.961 457.366L613.312 457.316L614.25 458.065L614.92 457.853C615.648 459.099 615.265 461.669 615.261 463.119L615.242 477.034C615.242 479.375 614.872 482.156 615.681 484.354L616.146 521.609L551.534 521.279L551.493 554.69L486.879 554.766L486.359 554.88C485.654 554.997 485.193 554.912 484.506 554.844L453.143 555.099L453.438 578.456C453.482 581.958 453.958 586.18 453.32 589.594C452.922 591.726 453.195 594.262 453.196 596.439L453.193 610.238C453.162 614.367 452.628 618.663 452.909 622.759L452.633 623.74L417.68 623.916C415.035 623.033 410.07 623.641 407.166 623.635L383.029 623.522L351.742 623.332L317.233 623.119L316.142 623.586C315.639 622.854 315.578 622.916 314.704 622.689L283.422 622.508L283.327 588.866L283.442 554.992L251.156 554.821C251.618 554.286 252.086 553.725 252.236 553.011C252.824 550.217 252.269 546.246 252.23 543.351L251.919 521.939L251.726 521.803L251.593 520.643L251.834 489.765L245.058 489.673C247.709 489.493 250.291 489.353 252.938 489.59C261.592 490.368 270.85 489.707 279.56 489.724C281.75 489.728 283.462 490.006 285.563 490.304C289.169 490.814 293.541 490.351 297.216 490.347L306.188 490.291C307.828 490.225 309.382 489.803 311.015 490.097C314.439 490.713 318.631 490.275 322.134 490.279L348.109 490.331C349.434 490.344 350.633 490.661 351.919 490.688L373.494 490.508L387.671 490.698L413.625 490.656C418.791 490.746 424.164 490.222 429.362 490.127L483.865 489.637Z"/>
	<path fill="#D21C21" transform="scale(6.01562 5.3125)" d="M251.919 521.939C259.922 522.471 268.085 522.109 276.105 522.058C277.965 522.046 281.203 521.573 282.931 522.013C283.268 522.099 283.517 522.389 283.811 522.577L283.438 555.053L317.068 554.808L316.659 579.954C316.66 582.427 316.275 585.614 316.828 587.998C317.471 590.773 317.08 594.131 317.063 596.989L317.041 611.622C316.989 614.332 315.497 620.991 317.233 623.119L316.142 623.586C315.639 622.854 315.578 622.916 314.704 622.689L283.422 622.508L283.327 588.866L283.442 554.992L251.156 554.821C251.618 554.286 252.086 553.725 252.236 553.011C252.824 550.217 252.269 546.246 252.23 543.351L251.919 521.939Z"/>
	<path fill="#AB171E" transform="scale(6.01562 5.3125)" d="M283.327 588.866L283.745 588.899L316.436 589.049L316.297 609.609C316.286 613.631 316.715 618.463 315.938 622.403L314.704 622.689L283.422 622.508L283.327 588.866Z"/>
	<path fill="#F52B29" transform="scale(6.01562 5.3125)" d="M483.865 489.637C484.19 489.713 484.74 489.86 485.062 489.849L550.691 489.566L550.691 458.066L582.75 458.066C584.279 457.047 597.367 457.691 600.188 457.691L600.562 457.316L604.5 457.408C607.293 457.219 610.214 457.635 612.961 457.366L613.312 457.316L614.25 458.065L582.941 458.066L582.941 489.566C581.536 489.566 579.003 489.189 577.875 489.941L551.438 489.941C550.743 490.987 550.642 491.482 550.688 492.75L550.316 493.125C550.381 493.721 550.568 494.067 550.691 494.625C550.911 495.623 550.718 497.131 550.715 498.173L550.698 506.57C550.696 507.842 550.997 510.101 550.316 511.125C550.383 511.742 550.521 512.033 550.691 512.625C551.244 514.548 550.661 518.203 550.681 520.314C550.774 529.866 551.512 539.841 550.783 549.375L550.781 553.875L530.951 553.883C527.125 553.885 523.18 554.08 519.375 553.783C517.011 553.599 514.367 553.88 511.962 553.881L494.381 553.878C492.696 553.878 488.363 554.324 487.124 553.501C486.216 550.44 486.746 546.182 486.746 542.944L486.754 521.629L507.399 521.632C510.718 521.629 514.865 522.084 518.062 521.309L518.613 521.185L518.974 521.098L519.152 520.421L518.627 520.127C517.129 521.267 514.512 520.679 512.625 520.982C510.372 521.343 507.745 521.081 505.454 521.083L491.826 521.063C490.03 521.05 488.219 520.56 486.465 521.111C483.653 521.993 479.199 521.411 476.231 521.413L453.401 521.428L351.762 521.456L351.753 544.247C351.749 546.982 352.286 551.272 351.472 553.816L351.38 521.823L350.652 521.203C346.816 521.971 342.532 521.548 338.629 521.498C336.378 521.47 334.127 521.744 331.875 521.774C328.701 521.815 325.448 521.609 322.31 522.056C320.134 522.366 318.085 521.915 315.937 521.848C309.79 521.656 303.522 522.26 297.375 522.375L288.627 522.33C287.198 522.355 285.674 522.212 284.367 522.838L283.811 522.577C283.517 522.389 283.268 522.099 282.931 522.013C281.203 521.573 277.965 522.046 276.105 522.058C268.085 522.109 259.922 522.471 251.919 521.939L251.726 521.803L251.593 520.643L251.834 489.765L245.058 489.673C247.709 489.493 250.291 489.353 252.938 489.59C261.592 490.368 270.85 489.707 279.56 489.724C281.75 489.728 283.462 490.006 285.563 490.304C289.169 490.814 293.541 490.351 297.216 490.347L306.188 490.291C307.828 490.225 309.382 489.803 311.015 490.097C314.439 490.713 318.631 490.275 322.134 490.279L348.109 490.331C349.434 490.344 350.633 490.661 351.919 490.688L373.494 490.508L387.671 490.698L413.625 490.656C418.791 490.746 424.164 490.222 429.362 490.127L483.865 489.637Z"/>
	<path fill="#FF625C" transform="scale(6.01562 5.3125)" d="M154.546 343.923L174.009 344.048C177.613 344.014 183.285 343.241 186.671 344.23L186.786 343.997C190.221 344.617 194.241 344.241 197.765 344.244L219.952 344.341L251.922 344.395L252.002 372.745C258.181 373.812 265.449 373.033 271.766 373.056C275.524 373.069 280.462 373.682 284.091 372.938C284.688 372.479 284.536 372.41 285.338 372.497L305.193 372.597L305.471 373.053L304.969 373.174C303.066 373.594 300.578 373.274 298.622 373.248L284.29 373.078L284.314 393.386C284.304 395.797 283.913 398.877 284.317 401.222L315.938 401.235L329.902 401.096C332.277 401.097 334.789 400.933 337.138 401.275L349.453 401.315L349.526 401.549L373.715 401.472C377.024 401.469 380.741 401.1 384.005 401.474L413.838 401.547C414.952 401.598 415.957 401.596 417.062 401.438C417.663 399.218 417.332 396.313 417.348 394.01L417.437 378.572C417.281 377.106 417.419 375.616 417.49 374.147L417.544 346.633L450.399 346.861L450.835 346.923L484.873 346.873C486.349 346.23 488.374 346.311 489.993 346.236L503.569 346.076C508.386 346.024 513.443 345.519 518.219 345.996L518.123 373.48L484.811 373.937L484.691 401.452L472.554 401.529L472.231 401.952C476.138 402.501 480.537 402.058 484.5 402.006C485.406 401.161 485.322 401.141 485.442 399.892L485.625 401.062L516.75 401.066L517.312 400.691C518.361 400.637 519.243 400.832 520.255 401.06L524.062 401.066C524.188 400.941 524.278 400.768 524.438 400.691C525.241 400.304 547.423 400.69 550.269 400.69L550.44 394.439C551.071 392.796 550.681 389.676 550.681 387.825L550.796 372.566L561.938 372.566L562.312 372.191L571.875 372.191L572.434 372.562L573.375 372.191L573.934 372.562C575.019 372.587 576.535 372.778 577.532 372.379L577.875 372.191C578.775 372.79 579.808 372.565 580.875 372.566C581.676 372.032 582.135 372.218 583.064 372.254L583.629 371.25L583.982 372.938L615.806 372.675L615.88 392.634C615.897 394.931 616.53 399.436 615.222 401.25L615.241 422.533C615.235 423.964 615.588 426.823 615.188 428.066C615.167 428.129 614.478 428.918 614.441 429C614.119 429.729 614.4 432.856 614.491 433.781C614.782 436.749 613.553 445.856 614.816 447.75C614.812 451.053 614.542 454.58 614.92 457.853L614.25 458.065L613.312 457.316L612.961 457.366C610.214 457.635 607.293 457.219 604.5 457.408L600.562 457.316L600.188 457.691C597.367 457.691 584.279 457.047 582.75 458.066L550.691 458.066L550.691 489.566L485.062 489.849C484.74 489.86 484.19 489.713 483.865 489.637L429.362 490.127C424.164 490.222 418.791 490.746 413.625 490.656L387.671 490.698L373.494 490.508L351.919 490.688C350.633 490.661 349.434 490.344 348.109 490.331L322.134 490.279C318.631 490.275 314.439 490.713 311.015 490.097C309.382 489.803 307.828 490.225 306.188 490.291L297.216 490.347C293.541 490.351 289.169 490.814 285.563 490.304C283.462 490.006 281.75 489.728 279.56 489.724C270.85 489.707 261.592 490.368 252.938 489.59C250.291 489.353 247.709 489.493 245.058 489.673L219.747 489.706L219.542 488.314L219.44 457.573L186.799 457.636L186.836 429.906L186.721 401.208L154.168 401.238L154.438 356.575L154.446 344.161L154.546 343.923Z"/>
	<path fill="#FF3D3C" transform="scale(6.01562 5.3125)" d="M219.342 427.738L219.938 428.969L224.232 429.029L224.652 429.074L251.698 429.298L251.984 458.153L251.752 458.175L251.811 458.491C252.377 461.86 252.069 465.591 252.084 469.009L252.145 489.206L416.816 489.566L416.852 459.065L451.017 459.026C451.397 459.278 481.866 458.474 485.441 458.444L485.33 453.748C485.796 448.907 485.5 443.699 485.378 438.811C485.314 436.282 485.529 433.603 485.309 431.108L485.253 430.546L486.061 430.118C485.902 430.855 485.861 431.425 485.893 432.173C485.99 434.43 485.637 436.576 486.068 438.83C486.575 441.489 486.151 444.935 486.1 447.669L486.188 458.25L486.562 458.441L486 458.816L485.441 459.375L485.438 489.191L483.966 489.303L483.865 489.637L429.362 490.127C424.164 490.222 418.791 490.746 413.625 490.656L387.671 490.698L373.494 490.508L351.919 490.688C350.633 490.661 349.434 490.344 348.109 490.331L322.134 490.279C318.631 490.275 314.439 490.713 311.015 490.097C309.382 489.803 307.828 490.225 306.188 490.291L297.216 490.347C293.541 490.351 289.169 490.814 285.563 490.304C283.462 490.006 281.75 489.728 279.56 489.724C270.85 489.707 261.592 490.368 252.938 489.59C250.291 489.353 247.709 489.493 245.058 489.673L219.747 489.706L219.542 488.314L219.44 457.573L186.799 457.636L186.836 429.906L187.232 428.958L219.366 428.956L219.342 427.738Z"/>
	<path fill="#FF6E62" transform="scale(6.01562 5.3125)" d="M219.342 427.738L219.938 428.969L224.232 429.029L224.652 429.074L251.698 429.298L251.984 458.153L251.752 458.175C248.006 457.466 243.712 457.892 239.901 457.904L219.702 457.804L219.366 428.956L219.342 427.738Z"/>
	<path fill="#FF665C" transform="scale(6.01562 5.3125)" d="M484.873 346.873C486.349 346.23 488.374 346.311 489.993 346.236L503.569 346.076C508.386 346.024 513.443 345.519 518.219 345.996L518.123 373.48L484.811 373.937L484.691 401.452L472.554 401.529L472.231 401.952L450.949 401.935L450.977 429.991L417.049 430.068L416.855 458.816L403.065 458.609L391.765 458.838C390.171 458.835 388.21 459.042 386.679 458.692C386.151 458.572 385.895 458.676 385.382 458.759C383.522 459.059 381.39 458.868 379.489 458.874L368.891 458.908L325.062 458.791L324.883 458.64L348.977 458.514L349.229 429.875L349.14 429.396L349.526 401.549L373.715 401.472C377.024 401.469 380.741 401.1 384.005 401.474L413.838 401.547C414.952 401.598 415.957 401.596 417.062 401.438C417.663 399.218 417.332 396.313 417.348 394.01L417.437 378.572C417.281 377.106 417.419 375.616 417.49 374.147L417.544 346.633L450.399 346.861L450.835 346.923L484.873 346.873Z"/>
	<path fill="#FF625C" transform="scale(6.01562 5.3125)" d="M349.229 429.875L350.985 429.789C356.219 430.448 361.772 430.14 367.054 430.155C371.986 430.17 377.109 430.461 382.021 430.09L381.754 458.473L348.977 458.514L349.229 429.875Z"/>
	<path fill="#FF8679" transform="scale(6.01562 5.3125)" d="M417.544 346.633L450.399 346.861L450.835 346.923L484.873 346.873L484.891 373.737C482.607 374.495 478.63 374.017 476.166 374.045L450.786 374.058L450.711 401.94L417.229 401.886L416.925 430.06L393.932 430.035C390.081 430.018 385.812 429.637 382.021 430.09C377.109 430.461 371.986 430.17 367.054 430.155C361.772 430.14 356.219 430.448 350.985 429.789L349.229 429.875L349.14 429.396L349.526 401.549L373.715 401.472C377.024 401.469 380.741 401.1 384.005 401.474L413.838 401.547C414.952 401.598 415.957 401.596 417.062 401.438C417.663 399.218 417.332 396.313 417.348 394.01L417.437 378.572C417.281 377.106 417.419 375.616 417.49 374.147L417.544 346.633Z"/>
	<path fill="#FF9D91" transform="scale(6.01562 5.3125)" d="M417.544 346.633L450.399 346.861L450.835 346.923L450.743 374.154L417.789 374.213C417.694 375.646 417.698 377.163 417.437 378.572C417.281 377.106 417.419 375.616 417.49 374.147L417.544 346.633Z"/>
	<path fill="#FF6963" transform="scale(6.01562 5.3125)" d="M349.526 401.549L373.715 401.472C377.024 401.469 380.741 401.1 384.005 401.474L381.937 401.816C381.266 404.173 381.72 407.696 381.716 410.231L381.725 429.714L361.631 429.686C358.214 429.669 354.348 429.297 350.985 429.789L349.229 429.875L349.14 429.396L349.526 401.549Z"/>
	<path fill="#F53B35" transform="scale(6.01562 5.3125)" d="M583.629 371.25L583.982 372.938L615.806 372.675L615.88 392.634C615.897 394.931 616.53 399.436 615.222 401.25L615.241 422.533C615.235 423.964 615.588 426.823 615.188 428.066C615.167 428.129 614.478 428.918 614.441 429C614.119 429.729 614.4 432.856 614.491 433.781C614.782 436.749 613.553 445.856 614.816 447.75C614.812 451.053 614.542 454.58 614.92 457.853L614.25 458.065L613.312 457.316L612.961 457.366C610.214 457.635 607.293 457.219 604.5 457.408L600.562 457.316L600.188 457.691C597.367 457.691 584.279 457.047 582.75 458.066L550.691 458.066L550.691 489.566L485.062 489.849C484.74 489.86 484.19 489.713 483.865 489.637L483.966 489.303L485.438 489.191L485.441 459.375L486 458.816L486.562 458.441L486.188 458.25L486.1 447.669C486.151 444.935 486.575 441.489 486.068 438.83C485.637 436.576 485.99 434.43 485.893 432.173C485.861 431.425 485.902 430.855 486.061 430.118L485.253 430.546L485.309 431.108C485.529 433.603 485.314 436.282 485.378 438.811C485.5 443.699 485.796 448.907 485.33 453.748L485.441 458.444C481.866 458.474 451.397 459.278 451.017 459.026C452.023 457.485 451.36 433.407 451.209 430.18L485.227 429.701L485.151 401.972L508.81 401.622C512.287 401.588 516.599 402.002 519.96 401.143L520.255 401.06L524.062 401.066C524.188 400.941 524.278 400.768 524.438 400.691C525.241 400.304 547.423 400.69 550.269 400.69L550.44 394.439C551.071 392.796 550.681 389.676 550.681 387.825L550.796 372.566L561.938 372.566L562.312 372.191L571.875 372.191L572.434 372.562L573.375 372.191L573.934 372.562C575.019 372.587 576.535 372.778 577.532 372.379L577.875 372.191C578.775 372.79 579.808 372.565 580.875 372.566C581.676 372.032 582.135 372.218 583.064 372.254L583.629 371.25Z"/>
	<path fill="#FF665C" transform="scale(6.01562 5.3125)" d="M583.629 371.25L583.982 372.938L583.304 373.108C580.426 373.811 577.084 373.272 574.125 373.343L551.607 373.641L551.448 388.5L551.515 395.36C551.573 397.317 551.833 399.77 551.142 401.625C550.19 404.183 550.68 407.797 550.679 410.568L550.691 428.441C548.509 428.441 540.356 427.829 538.875 428.816C536.033 428.816 522.786 428.167 521.25 429.191L486.061 430.118L485.253 430.546L485.309 431.108C485.529 433.603 485.314 436.282 485.378 438.811C485.5 443.699 485.796 448.907 485.33 453.748L485.441 458.444C481.866 458.474 451.397 459.278 451.017 459.026C452.023 457.485 451.36 433.407 451.209 430.18L485.227 429.701L485.151 401.972L508.81 401.622C512.287 401.588 516.599 402.002 519.96 401.143L520.255 401.06L524.062 401.066C524.188 400.941 524.278 400.768 524.438 400.691C525.241 400.304 547.423 400.69 550.269 400.69L550.44 394.439C551.071 392.796 550.681 389.676 550.681 387.825L550.796 372.566L561.938 372.566L562.312 372.191L571.875 372.191L572.434 372.562L573.375 372.191L573.934 372.562C575.019 372.587 576.535 372.778 577.532 372.379L577.875 372.191C578.775 372.79 579.808 372.565 580.875 372.566C581.676 372.032 582.135 372.218 583.064 372.254L583.629 371.25Z"/>
	<path fill="#FFAEA5" transform="scale(6.01562 5.3125)" d="M154.546 343.923L174.009 344.048C177.613 344.014 183.285 343.241 186.671 344.23L186.786 343.997C190.221 344.617 194.241 344.241 197.765 344.244L219.952 344.341L251.922 344.395L252.002 372.745C258.181 373.812 265.449 373.033 271.766 373.056C275.524 373.069 280.462 373.682 284.091 372.938C284.688 372.479 284.536 372.41 285.338 372.497L305.193 372.597L305.471 373.053L304.969 373.174C303.066 373.594 300.578 373.274 298.622 373.248L284.29 373.078L284.314 393.386C284.304 395.797 283.913 398.877 284.317 401.222L315.938 401.235L329.902 401.096C332.277 401.097 334.789 400.933 337.138 401.275L349.453 401.315L349.526 401.549L349.14 429.396L349.229 429.875L348.977 458.514L324.883 458.64L306.367 458.298C304.193 458.575 301.617 458.335 299.4 458.344L284.643 458.293L251.984 458.153L251.698 429.298L224.652 429.074L224.232 429.029L219.938 428.969L219.342 427.738L219.366 428.956L187.232 428.958L186.836 429.906L186.721 401.208L154.168 401.238L154.438 356.575L154.446 344.161L154.546 343.923Z"/>
	<path fill="#FEC6BF" transform="scale(6.01562 5.3125)" d="M219.952 344.341L251.922 344.395L252.002 372.745C250.208 372.124 247.01 372.616 245.017 372.632L229.783 372.722C226.506 372.733 223.047 372.905 219.8 372.473L219.952 344.341Z"/>
	<path fill="#FF9385" transform="scale(6.01562 5.3125)" d="M219.37 372.7L219.725 372.63L219.733 401.152L239.511 401.016C243.495 400.975 247.939 400.559 251.854 401.307L251.989 429C249.308 428.398 245.762 428.819 242.947 428.813C236.852 428.8 230.255 428.31 224.232 429.029L219.938 428.969L219.342 427.738C219.783 424.948 219.423 421.639 219.409 418.803L219.367 401.172L219.37 372.7Z"/>
	<path fill="#FED2CC" transform="scale(6.01562 5.3125)" d="M252.002 372.745C258.181 373.812 265.449 373.033 271.766 373.056C275.524 373.069 280.462 373.682 284.091 372.938C284.688 372.479 284.536 372.41 285.338 372.497L305.193 372.597L305.471 373.053L304.969 373.174C303.066 373.594 300.578 373.274 298.622 373.248L284.29 373.078L284.314 393.386C284.304 395.797 283.913 398.877 284.317 401.222L264.255 401.253C260.287 401.249 255.897 401.591 251.988 401.022L252.002 372.745Z"/>
	<path fill="#FFB3A9" transform="scale(6.01562 5.3125)" d="M337.138 401.275L349.453 401.315L349.526 401.549L349.14 429.396C345.852 429.835 342.091 429.496 338.76 429.487L316.963 429.42L284.991 429.401L261.745 429.346C259.121 429.357 254.307 429.959 251.989 429L316.682 428.987L316.468 401.476L336.774 401.316L337.138 401.275Z"/>
	<path fill="#FF6963" transform="scale(6.01562 5.3125)" d="M224.232 429.029C230.255 428.31 236.852 428.8 242.947 428.813C245.762 428.819 249.308 428.398 251.989 429C254.307 429.959 259.121 429.357 261.745 429.346L284.991 429.401L284.643 458.293L251.984 458.153L251.698 429.298L224.652 429.074L224.232 429.029Z"/>
	<path fill="#FF9385" transform="scale(6.01562 5.3125)" d="M284.991 429.401L316.963 429.42L338.76 429.487C342.091 429.496 345.852 429.835 349.14 429.396L349.229 429.875L348.977 458.514L324.883 458.64L306.367 458.298C304.193 458.575 301.617 458.335 299.4 458.344L284.643 458.293L284.991 429.401Z"/>
	<path fill="#FF9D91" transform="scale(6.01562 5.3125)" d="M284.991 429.401L316.963 429.42L316.643 458.053C313.366 458.082 309.572 457.729 306.367 458.298C304.193 458.575 301.617 458.335 299.4 458.344L284.643 458.293L284.991 429.401Z"/>
	<path fill="#FF625C" transform="scale(6.01562 5.3125)" d="M154.546 343.923L174.009 344.048C177.613 344.014 183.285 343.241 186.671 344.23L186.786 343.997C190.221 344.617 194.241 344.241 197.765 344.244L219.952 344.341L219.8 372.473L219.725 372.63L219.37 372.7L219.367 401.172L219.409 418.803C219.423 421.639 219.783 424.948 219.342 427.738L219.366 428.956L187.232 428.958L186.836 429.906L186.721 401.208L154.168 401.238L154.438 356.575L154.446 344.161L154.546 343.923Z"/>
	<path fill="#FF6963" transform="scale(6.01562 5.3125)" d="M187.094 401.239L219.367 401.172L219.409 418.803C219.423 421.639 219.783 424.948 219.342 427.738L219.366 428.956L187.232 428.958L187.094 401.239Z"/>
	<path fill="#FF9D91" transform="scale(6.01562 5.3125)" d="M186.786 343.997C190.221 344.617 194.241 344.241 197.765 344.244L219.952 344.341L219.8 372.473L219.725 372.63L219.37 372.7C217.239 372.337 214.761 372.621 212.586 372.635L195.56 372.728C192.852 372.74 189.768 373.067 187.134 372.562L186.811 369.732L186.671 344.23L186.786 343.997Z"/>
	<path fill="#F53B35" transform="scale(6.01562 5.3125)" d="M154.546 343.923L174.009 344.048C177.613 344.014 183.285 343.241 186.671 344.23L186.811 369.732L186.775 372.729L187.094 401.239L187.232 428.958L186.836 429.906L186.721 401.208L154.168 401.238L154.438 356.575L154.446 344.161L154.546 343.923Z"/>
	<path fill="#F8554A" transform="scale(6.01562 5.3125)" d="M154.546 343.923L174.009 344.048C177.613 344.014 183.285 343.241 186.671 344.23L186.811 369.732L186.775 372.729L154.561 372.753L154.438 356.575L154.446 344.161L154.546 343.923Z"/>
</svg>
