<?xml version="1.0" encoding="utf-8" ?>
<svg xmlns="http://www.w3.org/2000/svg" xmlns:xlink="http://www.w3.org/1999/xlink" width="4759" height="4759">
	<path fill="white" transform="scale(6.19792 6.19792)" d="M-0 -0L768 0L768 768L-0 768L0 -0Z"/>
	<path fill="#E0F8FA" transform="scale(6.19792 6.19792)" d="M120.056 168.012L119.962 159.997L127.943 160.032L127.917 151.971L135.939 152.003L135.948 143.988L144.003 144.004L144.014 151.994L135.985 151.981L136.049 168.009L120.056 168.012Z"/>
	<path fill="#E0F8FA" transform="scale(6.19792 6.19792)" d="M144.003 144.004L143.952 136.022L151.94 136.054L151.914 127.95L160.001 127.976L159.967 119.985L167.984 119.998L167.969 112.003L175.942 112.009L175.938 103.929L191.992 103.961L191.949 95.9764L199.949 95.9801L199.907 87.9942L215.985 88.0266L215.961 79.9334L231.803 79.9426C232.575 78.3997 232 73.8691 231.978 71.9734L247.951 71.9845L247.908 63.9936L263.977 64.0353L263.959 55.9424L287.984 55.9741L287.964 48.1613C290.301 47.4154 294.508 47.9628 297.041 47.9646L319.941 47.9918L319.913 40.0121L327.975 40.0218L328.044 55.9994L295.939 55.9957L295.995 64.0495L271.946 64.0332L272 72.013L263.976 71.9971L263.996 79.9959L280.085 79.9632L280.028 88.0764L264.009 88.0529L264.016 96.0165L248.006 96.0116L248.013 104.019L232.044 104.017L232.055 112.051L216.01 112.049L216.018 120.013L208.041 120.012L208.053 128.012L199.996 128.007L200.018 136.052L184.045 136.054L184.057 144.016L176.076 144.014L175.976 127.964L167.975 127.993L168.011 136.049L151.969 136.037L151.999 144.01L144.003 144.004Z"/>
	<path fill="#629E84" transform="scale(6.19792 6.19792)" d="M199.939 642.29L200.175 648.074L208.008 647.991L207.981 656.117L223.943 655.971L223.939 664.1L239.991 664.008L239.987 672.053L256.01 671.994L255.982 680.117L271.943 679.967L271.939 688.098L304.014 688.025L303.987 696.051L335.993 695.991L335.984 704.109L432.018 704.086L431.986 696.008L472.041 696.042L472.011 688.045L496.059 688.085L496.021 680.015L512.003 680.083L511.96 672.011L528.015 672.038L527.994 664.043L544.062 664.085L544.021 656.015L559.85 656.082C560.427 653.852 560.049 650.356 559.959 648.01L575.987 647.989L575.977 655.965L575.982 663.968L567.983 664.023L567.985 671.981L551.983 672L551.986 679.944L535.942 679.968L535.951 687.978L520.007 688.029L520.009 695.981L503.983 695.994L503.986 703.943L479.982 703.966L479.986 711.98L439.943 712.026L439.954 719.98L328.062 719.981L328.072 712.027L288.026 711.979L288.033 703.965L264.026 703.942L264.033 695.999L248.043 695.982L248.053 688.032L232.062 687.979L232.072 679.966L216.026 679.942L216.033 672L200.043 671.982L200.053 664.022L191.99 663.957L191.968 647.987L199.847 648.042L199.939 642.29Z"/>
	<path fill="#65D6F1" transform="scale(6.19792 6.19792)" d="M144.003 144.004L151.999 144.01L151.969 136.037L168.011 136.049L167.975 127.993L175.976 127.964L176.076 144.014L176.003 152.085L167.987 152.022L168.024 160.087L160.006 160.045L160.059 168.041L151.954 168.011L152.013 176.085L143.984 176.025L144.013 192.038L136.01 192.012L136.067 200.081L127.943 200.019L128.024 208.087L119.988 208.05L120.02 224.082L112.013 224.022L112.058 240.037L103.945 240.011L104.022 256.083L95.9878 256.05L96.0199 272.078L88.0138 272.022L88.0684 296.077L79.9355 296.026L80.0165 336.038L71.9901 336.012L72.0371 415.991L80.0559 415.987L80.083 456.004L88.0522 456.003L88.0779 480.003L96.022 480.003L96.0407 503.994L104.042 504.001L104.073 511.986L112.058 511.988L112.078 528.001L120.021 528.004L119.992 544.103L120.015 552.012L112.092 551.989L111.994 559.96L104.028 559.973L104.009 567.986L96.0121 567.995L96.0365 559.941L88.0431 559.969L88.08 543.98L80.0092 544.012L80.063 527.979L72.0083 527.996L72.0352 511.937L64.0441 511.96L64.0812 487.937L56.0097 487.96L56.0621 463.933L48.0087 463.964L48.0348 415.937L40.0464 415.965L40.0022 336.009L48.0119 336.014L47.9908 296.013L55.9974 296.004L55.9662 272.006L64.0537 272.004L64.007 248.009L72.0122 248.006L71.9926 232.044L80.0027 232.05L79.9594 216.006L88.0527 216.011L88.0061 200.008L96.0111 200.01L95.9891 192.007L104.002 192.013L103.966 176.005L112.05 176.01L112.003 168.011L120.056 168.012L136.049 168.009L135.985 151.981L144.014 151.994L144.003 144.004Z"/>
	<path fill="#629E84" transform="scale(6.19792 6.19792)" d="M112.092 551.989L112.016 544.053L119.992 544.103L120.015 552.012L112.092 551.989Z"/>
	<path fill="#629E84" transform="scale(6.19792 6.19792)" d="M104.028 559.973L103.954 552.014L112.092 551.989L111.994 559.96L104.028 559.973Z"/>
	<path fill="#65D6F1" transform="scale(6.19792 6.19792)" d="M327.975 40.0218L448.011 40.0421L447.988 48.0243L479.996 48.0065L479.991 56.0405L503.998 55.9998L503.985 64.0622L527.996 64.044L527.987 72.0235L544.008 72.0091L543.994 80.0491L551.995 79.9916L551.986 88.0621L568.009 88.043L567.989 96.0246L575.996 96.0016L575.991 104.041L592.017 103.993L591.991 112.064L599.996 112.038L599.987 120.023L607.963 120.003L607.953 128.05L616.013 127.987L615.991 136.064L623.996 136.038L623.987 144.023L631.963 144.004L631.953 152.05L640.013 151.987L639.991 160.063L647.996 160.038L647.987 168.023L655.963 168.004L655.953 176.049L664.006 175.978L663.997 192.024L671.994 191.999L671.991 200.053L679.954 199.992L679.952 216.024L687.998 216.003L687.992 232.065L695.991 232.034L695.989 248.05L703.954 247.994L703.952 264.024L711.997 264.003L711.992 296.049L719.992 295.988L719.988 336.023L727.959 336.004L727.965 423.966L719.986 424.005L719.993 463.943L711.991 463.961L712.005 495.97L703.941 496.009L703.964 511.942L695.983 511.959L695.997 527.982L687.981 527.995L688.005 543.97L679.941 544.008L679.964 559.945L671.983 559.961L671.999 567.96L663.989 568.006L664 583.943L655.94 583.959L655.967 591.963L647.985 592.005L647.999 599.984L639.984 599.994L640.004 607.943L631.94 607.96L631.967 615.962L623.985 616.005L623.999 623.983L615.981 623.994L616.004 631.945L607.94 631.96L607.967 639.963L599.985 640.005L599.999 647.984L591.984 647.995L592.001 655.951L575.977 655.965L575.987 647.989L559.959 648.01C560.049 650.356 560.427 653.852 559.85 656.082L544.021 656.015L544.062 664.085L527.994 664.043L528.015 672.038L511.96 672.011L512.003 680.083L496.021 680.015L496.059 688.085L472.011 688.045L472.041 696.042L431.986 696.008L432.018 704.086L335.984 704.109L335.993 695.991L303.987 696.051L304.014 688.025L271.939 688.098L271.943 679.967L255.982 680.117L256.01 671.994L239.987 672.053L239.991 664.008L223.939 664.1L223.943 655.971L207.981 656.117L208.008 647.991L200.175 648.074L199.939 642.29C199.947 641.286 199.714 640.749 200.438 639.995L207.992 640.066L208.04 632.568L208.072 632.236L216.034 632.251L216.036 640.017L232.061 640.042L232.07 647.999L240.025 648.006L240.029 655.976L256.062 655.984L256.07 664.011L280.062 664.041L280.069 671.998L304.063 672.008L304.067 679.976L336.028 679.982L336.029 688.01L432.008 688.047L431.965 680.135C433.953 679.385 438.235 679.937 440.462 679.942L463.972 680.007L463.916 671.977L487.978 672.017L487.913 663.984L511.964 664.048L511.916 655.93L528.006 656L527.968 647.979L535.971 648.019L535.914 639.984L552.01 640.053L551.966 631.926L559.972 632.004L559.921 623.977L576.009 624.017L575.968 615.976L583.98 616.055L583.91 607.928L592.034 608.012L591.913 599.976L600.005 600.02L599.968 591.976L607.98 592.055L607.91 583.928L616.034 584.012L615.913 575.976L624.005 576.019L623.968 567.977L631.978 568.056L631.922 551.974L640.034 552.017L639.91 543.985L648.01 544.057L647.965 527.977L655.979 528.019L655.912 520.006L663.994 520.058L663.909 495.985L672.01 496.057L671.966 479.977C674.276 479.998 677.837 480.489 679.976 479.828L679.922 455.973L688.029 456.018L687.92 415.921L696.007 416.007L695.985 335.988L688.197 336.057C687.378 334.533 687.98 300.358 687.998 295.952L679.945 296.13L679.941 271.96L671.986 272.12L671.984 256.004L663.987 256.103L663.988 239.989L655.948 240.06L655.942 223.96L647.986 224.12L647.986 207.999L639.98 208.099L640.018 199.952L631.949 200.129L631.939 184.002L623.985 184.106L623.995 175.955L615.982 176.122L616.008 167.988L607.942 168.061L607.948 160.001L599.985 160.103L599.995 151.954L591.982 152.122L592.008 143.988L583.942 144.061L583.955 136.015L567.985 136.096L568.023 127.951L559.944 128.136L559.949 119.988L551.988 120.059L551.992 112.011L535.941 112.103L535.942 103.965L520.012 104.115L520.026 96.0146L503.989 96.046L503.989 88.0113L479.986 88.101L479.996 79.9667L455.987 80.1145L455.993 71.992L399.986 72.0544L400.015 64.0206L367.965 64.0538L368.009 71.8248C367.253 72.2695 365.73 72.0371 364.845 72.0366L355.939 72.0322L311.987 72.0105L312.016 80.0823L287.989 80.0072L288.016 88.0813L280.028 88.0764L280.085 79.9632L263.996 79.9959L263.976 71.9971L272 72.013L271.946 64.0332L295.995 64.0495L295.939 55.9957L328.044 55.9994L327.975 40.0218Z"/>
	<path fill="white" transform="scale(6.19792 6.19792)" d="M280.028 88.0764L288.016 88.0813L287.989 80.0072L312.016 80.0823L311.987 72.0105L355.939 72.0322L364.845 72.0366C365.73 72.0371 367.253 72.2695 368.009 71.8248L367.965 64.0538L400.015 64.0206L399.986 72.0544L455.993 71.992L455.987 80.1145L479.996 79.9667L479.986 88.101L503.989 88.0113L503.989 96.046L520.026 96.0146L520.012 104.115L535.942 103.965L535.941 112.103L551.992 112.011L551.988 120.059L559.949 119.988L559.944 128.136L568.023 127.951L567.985 136.096L583.955 136.015L583.942 144.061L592.008 143.988L591.982 152.122L599.995 151.954L599.985 160.103L607.948 160.001L607.942 168.061L616.008 167.988L615.982 176.122L623.995 175.955L623.985 184.106L631.939 184.002L631.949 200.129L640.018 199.952L639.98 208.099L647.986 207.999L647.986 224.12L655.942 223.96L655.948 240.06L663.988 239.989L663.987 256.103L671.984 256.004L671.986 272.12L679.941 271.96L679.945 296.13L687.998 295.952C687.98 300.358 687.378 334.533 688.197 336.057L695.985 335.988L696.007 416.007L687.92 415.921L688.029 456.018L679.922 455.973L679.976 479.828C677.837 480.489 674.276 479.998 671.966 479.977L672.01 496.057L663.909 495.985L663.994 520.058L655.912 520.006L655.979 528.019L647.965 527.977L648.01 544.057L639.91 543.985L640.034 552.017L631.922 551.974L631.978 568.056L623.968 567.977L624.005 576.019L615.913 575.976L616.034 584.012L607.91 583.928L607.98 592.055L599.968 591.976L600.005 600.02L591.913 599.976L592.034 608.012L583.91 607.928L583.98 616.055L575.968 615.976L576.009 624.017L559.921 623.977L559.972 632.004L551.966 631.926L552.01 640.053L535.914 639.984L535.971 648.019L527.968 647.979L528.006 656L511.916 655.93L511.964 664.048L487.913 663.984L487.978 672.017L463.916 671.977L463.972 680.007L440.462 679.942C438.235 679.937 433.953 679.385 431.965 680.135L432.008 688.047L336.029 688.01L336.028 679.982L304.067 679.976L304.063 672.008L280.069 671.998L280.062 664.041L256.07 664.011L256.062 655.984L240.029 655.976L240.025 648.006L232.07 647.999L232.061 640.042L216.036 640.017L216.034 632.251L208.072 632.236C209.525 631.301 214.168 631.851 216.038 631.875L215.974 623.99L231.834 624.012C231.805 621.859 231.361 618.58 231.962 616.571L232.124 616.173C234.609 615.778 237.441 616.016 239.973 616.007L239.971 600.004C238.046 600.022 233.582 600.594 231.989 599.85L231.972 592.041L223.95 592.083L223.929 583.971L231.961 583.958L231.946 575.996L239.974 575.991L239.966 568.024L247.938 568L247.928 559.976L256.057 559.98L256.068 568.013L272.027 568.044L272.051 575.999L280.049 575.999L280.067 583.966L304.054 583.977L304.069 592.013L320.027 592.042L320.051 599.995L360.021 600.002L360.03 607.963L407.974 607.959L407.966 600.188C409.655 599.354 415.018 599.977 417.054 599.978L447.969 599.99L447.934 592.03L463.94 592.001L463.926 583.97L479.975 583.959L479.967 576.001L495.97 575.989L495.947 568.029L511.939 567.999L511.925 559.969L520 559.962L519.991 551.997L527.974 551.991L527.966 544.024L535.938 544.002L535.926 535.968L543.964 535.96L543.945 527.996L551.974 527.991L551.966 520.032L559.94 520.019L559.927 511.968L567.963 511.96L567.934 496.026L575.974 496.002L575.963 487.964L583.934 487.961L583.927 472.026L591.964 472.008L591.934 448.025L599.974 448.007L599.965 424.028L615.967 424.009L615.962 336.01L599.985 336.04L599.974 319.991L591.995 320.073L591.966 295.988L583.951 296.078L583.932 280.039L575.986 280.082L575.971 264.004C574.046 264.023 569.583 264.594 567.989 263.85L567.974 256.04L559.952 256.08L559.936 240.006L551.982 240.044L551.976 232.037L544.173 232.08C543.417 230.452 543.973 225.95 543.982 223.99L535.95 224.079L535.942 216.007L527.982 216.044L527.976 208.037L520.009 208.08L520.007 200.016L503.983 200.052L503.977 192.005L496.197 192.043C495.455 190.701 495.983 185.81 495.983 184.051L479.983 184.078L479.982 176.003L455.984 176.067L455.982 168.011L431.984 168.039L431.979 160.044L336.009 160.06L336.017 168.029L304.038 168.027L304.054 176.043L288.006 176.038L288.018 184.066L272.001 184.058L272.019 192.024L264.006 192.023L264.017 200.04L247.988 200.036L248.021 208.06L240.008 208.057L240.017 216.023L232.037 216.026L232.054 224.032L223.988 224.029L224.018 232.06L216.008 232.055L216.017 240.024L208.041 240.021L208.056 256.06L199.999 256.057L200.016 264.024L192.01 264.021L192.019 280.061L184.044 280.054L184.056 296.033L175.996 296.025L176.021 328.06L168.009 328.055L168.017 336.029L152.001 336.023L152.065 424.022L168.016 424.033L168.035 448.021L176.016 448.029L176.065 472.029L184.043 472.03L184.073 487.973L192.016 487.968L192.035 503.995L200.019 503.996L200.026 520.06L192.009 520.057L192.017 528.023L184.039 528.023L184.057 544.05L175.95 544.079L175.943 535.997L167.984 536.079L167.98 528.009L144.01 528.012L135.988 528.011L136 535.964L127.947 535.974L127.955 543.984L119.992 544.103L120.021 528.004L112.078 528.001L112.058 511.988L104.073 511.986L104.042 504.001L96.0407 503.994L96.022 480.003L88.0779 480.003L88.0522 456.003L80.083 456.004L80.0559 415.987L72.0371 415.991L71.9901 336.012L80.0165 336.038L79.9355 296.026L88.0684 296.077L88.0138 272.022L96.0199 272.078L95.9878 256.05L104.022 256.083L103.945 240.011L112.058 240.037L112.013 224.022L120.02 224.082L119.988 208.05L128.024 208.087L127.943 200.019L136.067 200.081L136.01 192.012L144.013 192.038L143.984 176.025L152.013 176.085L151.954 168.011L160.059 168.041L160.006 160.045L168.024 160.087L167.987 152.022L176.003 152.085L176.076 144.014L184.057 144.016L184.045 136.054L200.018 136.052L199.996 128.007L208.053 128.012L208.041 120.012L216.018 120.013L216.01 112.049L232.055 112.051L232.044 104.017L248.013 104.019L248.006 96.0116L264.016 96.0165L264.009 88.0529L280.028 88.0764Z"/>
	<path fill="#629E84" transform="scale(6.19792 6.19792)" d="M280.028 88.0764L288.016 88.0813L287.989 80.0072L312.016 80.0823L311.987 72.0105L355.939 72.0322L364.845 72.0366C365.73 72.0371 367.253 72.2695 368.009 71.8248L367.965 64.0538L400.015 64.0206L399.986 72.0544L455.993 71.992L455.987 80.1145L479.996 79.9667L479.986 88.101L503.989 88.0113L503.989 96.046L520.026 96.0146L520.012 104.115L535.942 103.965L535.941 112.103L551.992 112.011L551.988 120.059L559.949 119.988L559.944 128.136L568.023 127.951L567.985 136.096L583.955 136.015L583.942 144.061L592.008 143.988L591.982 152.122L599.995 151.954L599.985 160.103L607.948 160.001L607.942 168.061L616.008 167.988L615.982 176.122L623.995 175.955L623.985 184.106L631.939 184.002L631.949 200.129L640.018 199.952L639.98 208.099L647.986 207.999L647.986 224.12L655.942 223.96L655.948 240.06L663.988 239.989L663.987 256.103L671.984 256.004L671.986 272.12L679.941 271.96L679.945 296.13L687.998 295.952C687.98 300.358 687.378 334.533 688.197 336.057L695.985 335.988L696.007 416.007L687.92 415.921L688.029 456.018L679.922 455.973L679.976 479.828C677.837 480.489 674.276 479.998 671.966 479.977L672.01 496.057L663.909 495.985L663.994 520.058L655.912 520.006L655.979 528.019L647.965 527.977L648.01 544.057L639.91 543.985L640.034 552.017L631.922 551.974L631.978 568.056L623.968 567.977L624.005 576.019L615.913 575.976L616.034 584.012L607.91 583.928L607.98 592.055L599.968 591.976L600.005 600.02L591.913 599.976L592.034 608.012L583.91 607.928L583.98 616.055L575.968 615.976L576.009 624.017L559.921 623.977L559.972 632.004L551.966 631.926L552.01 640.053L535.914 639.984L535.971 648.019L527.968 647.979L528.006 656L511.916 655.93L511.964 664.048L487.913 663.984L487.978 672.017L463.916 671.977L463.972 680.007L440.462 679.942C438.235 679.937 433.953 679.385 431.965 680.135L432.008 688.047L336.029 688.01L336.028 679.982L304.067 679.976L304.063 672.008L280.069 671.998L280.062 664.041L256.07 664.011L256.062 655.984L240.029 655.976L240.025 648.006L232.07 647.999L232.061 640.042L216.036 640.017L216.034 632.251L208.072 632.236C209.525 631.301 214.168 631.851 216.038 631.875L215.974 623.99L231.834 624.012C231.805 621.859 231.361 618.58 231.962 616.571L232.124 616.173C231.492 621.211 232.002 626.929 231.974 632.041L239.993 632.003L239.981 640.063L256.01 640.05L255.982 648.025L280.011 648.012L279.981 656.034L295.956 656.009L295.939 664.063L328.01 664.05L327.978 672.025L440.017 672.021L440.007 664.055L472.058 664.058L472.048 656.028L488.019 656.028L488.006 648.019L504.01 648.021L504.009 640.064L520.058 640.054L520.048 632.029L536.019 632.028L536.006 624.019L552.019 624.02L552.013 616.055L560.02 616.058L560.001 608.012L568.055 608.02L568.048 600.019L576.019 600.019L576.013 592.055L584.022 592.055L584.002 584.015L592.055 584.021L592.047 576.019L600.019 576.018L600.014 568.055L608.022 568.056L608.002 560.012L616.055 560.021L616.047 552.018L624.019 552.018L624.014 544.05L631.839 544.053C632.322 543.014 632.043 540.855 632.041 539.669L632.01 528.018L640.059 528.017L640.052 512.028L648.02 512.017L648.015 496.055L655.841 496.054C656.324 495.015 656.045 492.854 656.042 491.669L656.011 480.018L664.059 480.017L664.053 456.02L672.02 456.017L672.015 424.055L680.023 424.053L680.04 319.956L672.034 319.951L672.029 287.991L664.066 287.989L664.068 271.958L656.063 271.952L656.069 260.374C656.068 259.213 656.347 257.007 655.835 256.012L648.03 255.994L648.028 239.994L640.067 239.988L640.068 223.958L632.063 223.952L632.04 208.016L624.025 207.99L624.032 199.956L616.063 199.952L616.072 191.993L608.042 191.989L608.053 184.013L600.026 183.991L600.032 175.954L592.063 175.953L592.072 167.993L584.043 167.989L584.053 160.016L576.026 159.991L576.032 151.954L568.063 151.952L568.072 143.994L560.041 143.987L560.053 136.036L544.062 135.979L544.072 127.958L536.051 127.953L536.051 119.998L520.062 119.982C520.075 117.815 520.596 113.937 519.867 112.004L504.01 111.981L504.015 103.963L480.027 103.942L480.032 96.0001L456.025 95.9808L456.032 88.0283L408.024 87.9795L408.032 79.9635L367.947 79.967L367.953 87.9799L311.986 88.0262L311.984 95.9797L287.985 95.9989L287.984 103.944L263.983 103.969L263.986 111.969L255.984 112.023L255.985 119.981L239.983 120L239.986 127.944L223.942 127.969L223.954 135.969L215.982 136.02L215.986 143.98L199.948 144L199.949 151.937L191.983 151.967L191.986 159.967L183.986 160.023L183.986 167.976L175.945 167.998L175.951 175.936L167.983 175.967L167.986 183.967L159.986 184.023L159.986 191.975L151.947 191.997L151.949 199.934L143.984 199.967L143.98 215.975L135.985 215.997L135.987 223.937L127.944 223.965L127.947 239.973L119.983 239.998L119.981 255.966L111.987 256.023L111.972 271.937L103.944 271.965L103.946 295.935L95.9807 295.966L95.9812 327.966L87.9863 328.021L87.9848 424.065L95.9861 424.045L95.9811 464.044L103.953 464.004L103.943 480.025C106.314 480.012 109.758 479.559 111.99 480.171L111.991 504.011L119.986 504.004L119.98 512.038L127.955 512.001L127.943 528.028L135.988 528.011L136 535.964L127.947 535.974L127.955 543.984L119.992 544.103L120.021 528.004L112.078 528.001L112.058 511.988L104.073 511.986L104.042 504.001L96.0407 503.994L96.022 480.003L88.0779 480.003L88.0522 456.003L80.083 456.004L80.0559 415.987L72.0371 415.991L71.9901 336.012L80.0165 336.038L79.9355 296.026L88.0684 296.077L88.0138 272.022L96.0199 272.078L95.9878 256.05L104.022 256.083L103.945 240.011L112.058 240.037L112.013 224.022L120.02 224.082L119.988 208.05L128.024 208.087L127.943 200.019L136.067 200.081L136.01 192.012L144.013 192.038L143.984 176.025L152.013 176.085L151.954 168.011L160.059 168.041L160.006 160.045L168.024 160.087L167.987 152.022L176.003 152.085L176.076 144.014L184.057 144.016L184.045 136.054L200.018 136.052L199.996 128.007L208.053 128.012L208.041 120.012L216.018 120.013L216.01 112.049L232.055 112.051L232.044 104.017L248.013 104.019L248.006 96.0116L264.016 96.0165L264.009 88.0529L280.028 88.0764Z"/>
	<path fill="#996612" transform="scale(6.19792 6.19792)" d="M144.01 528.012L167.98 528.009L167.984 536.079L175.943 535.997L175.95 544.079L184.057 544.05L184.039 528.023L192.017 528.023L192.009 520.057L200.026 520.06L200.019 503.996L192.035 503.995L192.016 487.968L184.073 487.973L184.043 472.03L176.065 472.029L176.016 448.029L168.035 448.021L168.016 424.033L152.065 424.022L152.001 336.023L168.017 336.029L168.009 328.055L176.021 328.06L175.996 296.025L184.056 296.033L184.044 280.054L192.019 280.061L192.01 264.021L200.016 264.024L199.999 256.057L208.056 256.06L208.041 240.021L216.017 240.024L216.008 232.055L224.018 232.06L223.988 224.029L232.054 224.032L232.037 216.026L240.017 216.023L240.008 208.057L248.021 208.06L247.988 200.036L264.017 200.04L264.006 192.023L272.019 192.024L272.001 184.058L288.018 184.066L288.006 176.038L304.054 176.043L304.038 168.027L336.017 168.029L336.009 160.06L431.979 160.044L431.984 168.039L455.982 168.011L455.984 176.067L479.982 176.003L479.983 184.078L495.983 184.051C495.983 185.81 495.455 190.701 496.197 192.043L503.977 192.005L503.983 200.052L520.007 200.016L520.009 208.08L527.976 208.037L527.982 216.044L535.942 216.007L535.95 224.079L543.982 223.99C543.973 225.95 543.417 230.452 544.173 232.08L551.976 232.037L551.982 240.044L559.936 240.006L559.952 256.08L567.974 256.04L567.989 263.85C569.583 264.594 574.046 264.023 575.971 264.004L575.986 280.082L583.932 280.039L583.951 296.078L591.966 295.988L591.995 320.073L599.974 319.991L599.985 336.04L615.962 336.01L615.967 424.009L599.965 424.028L599.974 448.007L591.934 448.025L591.964 472.008L583.927 472.026L583.934 487.961L575.963 487.964L575.974 496.002L567.934 496.026L567.963 511.96L559.927 511.968L559.94 520.019L551.966 520.032L551.974 527.991L543.945 527.996L543.964 535.96L535.926 535.968L535.938 544.002L527.966 544.024L527.974 551.991L519.991 551.997L520 559.962L511.925 559.969L511.939 567.999L495.947 568.029L495.97 575.989L479.967 576.001L479.975 583.959L463.926 583.97L463.94 592.001L447.934 592.03L447.969 599.99L417.054 599.978C415.018 599.977 409.655 599.354 407.966 600.188L407.974 607.959L360.03 607.963L360.021 600.002L320.051 599.995L320.027 592.042L304.069 592.013L304.054 583.977L280.067 583.966L280.049 575.999L272.051 575.999L272.027 568.044L256.068 568.013L256.057 559.98L247.928 559.976L247.938 568L239.966 568.024L239.974 575.991L231.946 575.996L231.961 583.958L223.929 583.971L223.95 592.083L231.972 592.041L231.989 599.85C233.582 600.594 238.046 600.022 239.971 600.004L239.973 616.007C237.441 616.016 234.609 615.778 232.124 616.173L231.962 616.571C231.361 618.58 231.805 621.859 231.834 624.012L215.974 623.99L216.038 631.875C214.168 631.851 209.525 631.301 208.072 632.236L208.04 632.568L207.992 640.066L200.438 639.995C199.714 640.749 199.947 641.286 199.939 642.29L199.847 648.042L191.968 647.987L191.99 663.957L183.934 664.03L183.968 671.99L168.029 671.995L168.019 664.036L150.047 663.98C148.607 663.983 145.121 663.614 143.967 664.228L143.975 671.992L135.947 671.998L135.967 679.958L127.927 679.971L127.938 695.991L119.968 695.998L119.974 703.959L111.941 703.963L111.965 712.005L103.93 712.025L103.939 719.989L95.9666 719.998L95.9735 727.959L87.9345 727.962L87.9678 736.005L48.0339 736.017L48.0085 696.025L56.0244 696.014L55.9761 688.039L64.0533 688.06L64.0328 680.016L72.0074 680.027L71.9976 672.007L79.8117 671.995C79.7874 670.16 79.2698 666.005 80.0335 664.475L80.2654 664.14L88.0662 664.077L88.1385 656.27C89.6485 655.257 94.0525 655.801 96.0133 655.874L96.0061 648.022L103.859 648.014L103.816 647.864C103.689 646.111 103.335 641.481 104.266 640.14L112.066 640.077L112.139 632.27C113.42 631.303 118.235 631.84 120.018 631.875L120.017 623.998L112.066 623.997L112.05 616.203C110.425 615.463 106.01 616.018 104.063 616.029L104.013 599.999L96.0295 599.997L96.0201 592.027L88.0713 592.019L88.0464 584.026L96.0182 584.032L96.0105 576.026L96.0121 567.995L104.009 567.986L104.028 559.973L111.994 559.96L112.092 551.989L120.015 552.012L119.992 544.103L127.955 543.984L127.947 535.974L136 535.964L135.988 528.011L144.01 528.012Z"/>
	<path fill="#DBE2A4" transform="scale(6.19792 6.19792)" d="M520.014 504.001L527.999 504.007L528.003 511.988L520.034 512.036L520.014 504.001Z"/>
	<path fill="#DBE2A4" transform="scale(6.19792 6.19792)" d="M520.119 487.904L520.013 480.008L528 480.017L528.001 487.986C525.46 487.977 522.622 488.224 520.119 487.904Z"/>
	<path fill="#DBE2A4" transform="scale(6.19792 6.19792)" d="M527.989 280.033L535.987 280.067L535.976 288.006L527.999 288.026L527.989 280.033Z"/>
	<path fill="#DBE2A4" transform="scale(6.19792 6.19792)" d="M280.093 520.123L288 520.051L288.003 528.003L280.022 528.025L280.093 520.123Z"/>
	<path fill="#DBE2A4" transform="scale(6.19792 6.19792)" d="M503.999 504L503.991 496.032L511.896 496.118L511.978 504.002L503.999 504Z"/>
	<path fill="#DBE2A4" transform="scale(6.19792 6.19792)" d="M192 552.023L191.989 544.04L199.897 544.118L199.977 552.005L192 552.023Z"/>
	<path fill="#DBE2A4" transform="scale(6.19792 6.19792)" d="M455.991 552.002L463.989 552.019L463.977 559.988L456 560.037L455.991 552.002Z"/>
	<path fill="#DBE2A4" transform="scale(6.19792 6.19792)" d="M455.99 240.012L455.99 232.04L463.991 232.066L463.98 240.006L455.99 240.012Z"/>
	<path fill="#DBE2A4" transform="scale(6.19792 6.19792)" d="M239.989 504.001L247.986 504.01L247.982 511.987L240.001 512.038L239.989 504.001Z"/>
	<path fill="#DBE2A4" transform="scale(6.19792 6.19792)" d="M239.992 480.003L247.993 480.02L247.983 487.986L240 488.041L239.992 480.003Z"/>
	<path fill="#DBE2A4" transform="scale(6.19792 6.19792)" d="M256.002 496.043L264.005 496.061L263.999 503.996L256.028 504.012L256.002 496.043Z"/>
	<path fill="#DBE2A4" transform="scale(6.19792 6.19792)" d="M263.999 503.996L271.994 504.006L271.897 511.892L264 512.041L263.999 503.996Z"/>
	<path fill="#DBE2A4" transform="scale(6.19792 6.19792)" d="M208.114 535.895L208.002 528.007L216 528.017L216 535.985C213.467 535.975 210.605 536.233 208.114 535.895Z"/>
	<path fill="#DBE2A4" transform="scale(6.19792 6.19792)" d="M496.116 511.895C495.672 509.483 495.999 506.48 496.003 504L503.999 504L503.999 511.985C501.465 511.975 498.609 512.229 496.116 511.895Z"/>
	<path fill="#DBE2A4" transform="scale(6.19792 6.19792)" d="M256.004 240.005L264 240.015L264.002 247.988L256.032 248.04L256.004 240.005Z"/>
	<path fill="#DBE2A4" transform="scale(6.19792 6.19792)" d="M424.003 216.006L432.002 216.017L432.003 223.98L424.03 224.038L424.003 216.006Z"/>
	<path fill="#DBE2A4" transform="scale(6.19792 6.19792)" d="M304 552.005L312.002 552.016L312.002 559.989L304.032 560.04L304 552.005Z"/>
	<path fill="#DBE2A4" transform="scale(6.19792 6.19792)" d="M295.926 247.92L287.999 248.042L287.989 240.007L295.916 240.023L295.926 247.92Z"/>
	<path fill="#DBE2A4" transform="scale(6.19792 6.19792)" d="M496.076 216.021L503.995 216.013L503.999 223.978L496.028 224.038L496.076 216.021Z"/>
	<path fill="#DBE2A4" transform="scale(6.19792 6.19792)" d="M312.012 535.99L319.988 536.007L319.959 544.034L312.001 544.063L312.012 535.99Z"/>
	<path fill="#DBE2A4" transform="scale(6.19792 6.19792)" d="M463.952 528.006L472.024 528.016L472.026 535.985L463.974 536.034L463.952 528.006Z"/>
	<path fill="#DBE2A4" transform="scale(6.19792 6.19792)" d="M223.953 456.005L232.025 456.014L232.028 463.985L223.976 464.04L223.953 456.005Z"/>
	<path fill="#DBE2A4" transform="scale(6.19792 6.19792)" d="M559.952 312.006L568.022 312.016L568.025 319.986L559.974 320.043L559.952 312.006Z"/>
	<path fill="#DBE2A4" transform="scale(6.19792 6.19792)" d="M535.951 456.007L544.025 456.014L544.025 463.986L535.976 464.042L535.951 456.007Z"/>
	<path fill="#DBE2A4" transform="scale(6.19792 6.19792)" d="M295.953 528.007L304.025 528.015L304.026 535.98L295.976 536.041L295.953 528.007Z"/>
	<path fill="#DBE2A4" transform="scale(6.19792 6.19792)" d="M448 535.985L456.001 536.006L456.001 544.034L448.205 544.059C447.526 541.899 447.994 538.32 448 535.985Z"/>
	<path fill="#DBE2A4" transform="scale(6.19792 6.19792)" d="M487.95 208.037L496.029 208.065L496.076 216.021L487.973 216.027L487.95 208.037Z"/>
	<path fill="#DBE2A4" transform="scale(6.19792 6.19792)" d="M208.002 319.984L216 320.007L216.003 328.038L208.029 328.062L208.002 319.984Z"/>
	<path fill="#DBE2A4" transform="scale(6.19792 6.19792)" d="M295.916 240.023L295.949 232.044L304.022 232.055L304.023 240.003L295.916 240.023Z"/>
	<path fill="#DBE2A4" transform="scale(6.19792 6.19792)" d="M439.955 223.986L448.028 224.004L448.027 232.032L439.972 232.059L439.955 223.986Z"/>
	<path fill="#DBE2A4" transform="scale(6.19792 6.19792)" d="M511.957 223.983L520.041 223.993L520.034 232.036L511.972 232.064L511.957 223.983Z"/>
	<path fill="#DBE2A4" transform="scale(6.19792 6.19792)" d="M247.972 232.065L247.949 223.981L256.115 223.895L256.029 232.035L247.972 232.065Z"/>
	<path fill="#DBE2A4" transform="scale(6.19792 6.19792)" d="M487.966 520.067L487.945 511.981L496.116 511.895L496.035 520.041L487.966 520.067Z"/>
	<path fill="#DBE2A4" transform="scale(6.19792 6.19792)" d="M271.897 511.892L280.026 511.999L280.093 520.123L271.963 520.069L271.897 511.892Z"/>
	<path fill="#DBE2A4" transform="scale(6.19792 6.19792)" d="M199.897 544.118L199.949 535.981L208.114 535.895L208.029 544.034L199.897 544.118Z"/>
	<path fill="#DBE2A4" transform="scale(6.19792 6.19792)" d="M511.896 496.118L511.95 487.979L520.119 487.904L520.038 496.034L511.896 496.118Z"/>
	<path fill="#DBE2A4" transform="scale(6.19792 6.19792)" d="M143.995 551.993L143.989 544.033L153.754 543.908C155.71 543.879 157.801 543.655 159.694 544.17L151.923 544.222L151.976 552.008L143.995 551.993Z"/>
	<path fill="#DBE2A4" transform="scale(6.19792 6.19792)" d="M328 544.031L343.986 544.062L343.975 552.011L328.027 552.023L328 544.031Z"/>
	<path fill="#DBE2A4" transform="scale(6.19792 6.19792)" d="M496.004 240.003L511.989 240.015L511.978 247.997L496.032 248.038L496.004 240.003Z"/>
	<path fill="#DBE2A4" transform="scale(6.19792 6.19792)" d="M423.998 544.032L439.985 544.06L439.977 552.01L424.026 552.026L423.998 544.032Z"/>
	<path fill="#DBE2A4" transform="scale(6.19792 6.19792)" d="M375.999 568.032L391.986 568.063L391.975 576.011L376.026 576.027L375.999 568.032Z"/>
	<path fill="#DBE2A4" transform="scale(6.19792 6.19792)" d="M256.115 223.895C255.657 221.501 255.997 218.47 256.003 216.003L271.914 216.02L271.977 223.997C266.883 223.992 261.125 224.544 256.115 223.895Z"/>
	<path fill="#DBE2A4" transform="scale(6.19792 6.19792)" d="M551.992 455.998L568.02 456.013L568.025 463.976L552 464.039L551.992 455.998Z"/>
	<path fill="#DBE2A4" transform="scale(6.19792 6.19792)" d="M431.989 184.029L448.02 184.06L448.022 191.984L432 192.026L431.989 184.029Z"/>
	<path fill="#DBE2A4" transform="scale(6.19792 6.19792)" d="M319.947 184.046L335.999 184.054L336 192.01L319.973 192.023L319.947 184.046Z"/>
	<path fill="#DBE2A4" transform="scale(6.19792 6.19792)" d="M223.948 280.046L239.999 280.056L240.001 288.012L223.971 288.025L223.948 280.046Z"/>
	<path fill="#DBE2A4" transform="scale(6.19792 6.19792)" d="M215.987 432.003L223.991 432.019L223.981 448.03L216.001 448.061L215.987 432.003Z"/>
	<path fill="#DBE2A4" transform="scale(6.19792 6.19792)" d="M543.996 432.005L552.001 432.017L552.003 448.032L544.028 448.059L543.996 432.005Z"/>
	<path fill="#DBE2A4" transform="scale(6.19792 6.19792)" d="M207.992 456.005L216.001 456.015L216.004 472.034L208.025 472.059L207.992 456.005Z"/>
	<path fill="#DBE2A4" transform="scale(6.19792 6.19792)" d="M312.011 223.982L328.024 224.001L328.025 232.042L312.001 232.059L312.011 223.982Z"/>
	<path fill="#DBE2A4" transform="scale(6.19792 6.19792)" d="M112.092 551.989L120.015 552.012L120.002 559.983L112.067 559.995L112.029 568.038L104.079 568.037L103.977 576.006L96.0105 576.026L96.0121 567.995L104.009 567.986L104.028 559.973L111.994 559.96L112.092 551.989Z"/>
	<path fill="#DBE2A4" transform="scale(6.19792 6.19792)" d="M135.988 528.011L144.01 528.012L144.004 535.989L136.068 536.001L136.03 544.032L128.067 544.033L127.98 552.002L120.015 552.012L119.992 544.103L127.955 543.984L127.947 535.974L136 535.964L135.988 528.011Z"/>
	<path fill="#DBE2A4" transform="scale(6.19792 6.19792)" d="M455.992 192.001L472.03 192.015L472.046 199.978L480 199.992L480 208.038L463.967 208.062L463.963 199.954L456.001 200.047L455.992 192.001Z"/>
	<path fill="#DBE2A4" transform="scale(6.19792 6.19792)" d="M271.914 216.02L271.946 208.037C274.405 208.046 277.645 208.443 279.991 207.867L280.002 199.976L295.94 199.987L295.952 192.004L312 192.012L312.006 200.25L312.006 208.034L304.016 208.059L304.028 199.956L296.003 200.025L295.975 208.04L280.044 208.052L280.028 216.005L271.914 216.02Z"/>
	<path fill="#DBE2A4" transform="scale(6.19792 6.19792)" d="M376.087 191.646C375.573 189.221 375.82 186.507 375.857 184.029L343.97 184.062L343.948 175.977L415.984 176.001L415.978 184.042L392.144 184.042C392.146 186.273 392.566 189.577 391.916 191.65L391.621 191.825C390.594 192.268 388.757 192.041 387.595 192.049C384.673 192.071 378.603 192.804 376.087 191.646Z"/>
	<path fill="white" transform="scale(6.19792 6.19792)" d="M376.087 191.646L376.198 183.976L391.804 184.042C391.823 186.505 391.613 189.22 391.916 191.65L391.621 191.825C390.594 192.268 388.757 192.041 387.595 192.049C384.673 192.071 378.603 192.804 376.087 191.646Z"/>
	<path fill="#DBE2A4" transform="scale(6.19792 6.19792)" d="M551.985 352.027L600.001 352.056L600.005 367.995L552 368.033L551.985 352.027Z"/>
	<path fill="#DBE2A4" transform="scale(6.19792 6.19792)" d="M159.999 352.028L216 352.055L216.002 360.008L208.016 360.006L208.025 367.999L167.996 368.035L168 359.988L160.027 360.031L159.999 352.028Z"/>
	<path fill="white" transform="scale(6.19792 6.19792)" d="M159.694 544.17L159.874 544.568C160.522 546.507 160.081 549.889 160.064 551.996L168.018 551.995L168.027 559.974L160.022 560.014L160.051 568.059L151.968 568.04L152.012 576.017L143.994 576.005L144.009 584.048L128.09 584.011L128.008 592.066L120.001 592.036L119.998 600.018L111.996 600.041L111.94 583.972L119.983 583.98L119.988 576.005L127.943 576.004L127.943 559.977L136.116 559.864C135.73 557.402 136.003 554.514 135.997 552.001L143.995 551.993L151.976 552.008L151.923 544.222L159.694 544.17Z"/>
	<path fill="#DBE2A4" transform="scale(6.19792 6.19792)" d="M136.116 559.864C135.73 557.402 136.003 554.514 135.997 552.001L143.995 551.993L144.003 559.993C141.446 559.978 138.639 560.194 136.116 559.864Z"/>
	<path fill="#DBE2A4" transform="scale(6.19792 6.19792)" d="M119.983 583.98L119.988 576.005L127.943 576.004L127.943 559.977L136.116 559.864L136.09 560.283L136.026 576.008L127.95 575.991L127.955 583.984L119.983 583.98Z"/>
	<path fill="#DBE2A4" transform="scale(6.19792 6.19792)" d="M168.027 559.974L175.985 559.995L175.981 576.008L167.992 576.006L168.002 583.993L160.01 583.997L160.028 592.038L151.969 592.041L151.981 600.008L143.993 600.007L144.002 607.999L119.999 608.038C119.978 605.436 119.72 602.591 119.998 600.018L120.001 592.036L128.008 592.066L128.09 584.011L144.009 584.048L143.994 576.005L152.012 576.017L151.968 568.04L160.051 568.059L160.022 560.014L168.027 559.974Z"/>
	<path fill="#DBE2A4" transform="scale(6.19792 6.19792)" d="M112.139 632.27C113.42 631.303 118.235 631.84 120.018 631.875C122.722 631.939 134.178 631.287 135.745 632.257C136.653 634.126 136.173 637.855 136.153 639.996L143.997 640.043L144.002 648.008L136.015 648.01L136.029 655.99L127.968 655.995L127.984 664.035L119.996 664.038L120.004 672.008L112.021 672.007L112.03 688.036L103.969 688.041L103.983 696.008L95.9921 696.006L96.0029 703.991L88.0107 703.995L88.0287 712.043L55.9694 712.066L55.9472 703.97L64.0066 703.977L64.0171 695.99L56.0244 696.014L55.9761 688.039L64.0533 688.06L64.0328 680.016L72.0074 680.027L71.9976 672.007L79.8117 671.995C79.7874 670.16 79.2698 666.005 80.0335 664.475L80.2654 664.14L88.0662 664.077L88.1385 656.27C89.6485 655.257 94.0525 655.801 96.0133 655.874L96.0061 648.022L103.859 648.014L103.816 647.864C103.689 646.111 103.335 641.481 104.266 640.14L112.066 640.077L112.139 632.27Z"/>
	<path fill="#996612" transform="scale(6.19792 6.19792)" d="M104.266 640.14L112.066 640.077C111.753 642.592 111.994 645.452 111.973 648.006L104.141 647.989L104.266 640.14Z"/>
	<path fill="#996612" transform="scale(6.19792 6.19792)" d="M80.2654 664.14L88.0662 664.077C87.7566 666.596 87.9914 669.447 87.9684 672.004L80.1688 671.989L80.2654 664.14Z"/>
	<path fill="#996612" transform="scale(6.19792 6.19792)" d="M88.1385 656.27L95.9891 656.122L95.9777 664.029C93.4095 664.037 90.6052 663.811 88.0662 664.077L88.1385 656.27Z"/>
	<path fill="#996612" transform="scale(6.19792 6.19792)" d="M112.139 632.27L119.989 632.12L119.977 640.028C117.411 640.036 114.603 639.808 112.066 640.077L112.139 632.27Z"/>
	<path fill="#996612" transform="scale(6.19792 6.19792)" d="M103.859 648.014L103.935 655.984L96.0133 655.874L96.0061 648.022L103.859 648.014Z"/>
	<path fill="white" transform="scale(6.19792 6.19792)" d="M112.124 655.878C111.774 653.356 111.999 650.555 111.997 647.997L120.005 648.005L120.008 656.024C117.444 656.014 114.653 656.224 112.124 655.878Z"/>
	<path fill="white" transform="scale(6.19792 6.19792)" d="M88.1221 679.878C87.7507 677.393 88.0057 674.528 87.9962 671.997L96.0045 672.005L96.0098 680.03C93.4441 680.018 90.6529 680.224 88.1221 679.878Z"/>
	<path fill="white" transform="scale(6.19792 6.19792)" d="M120.005 648.005L119.99 640.02L127.958 639.997L127.927 632.242L135.745 632.257L135.813 640.029L128.078 640.046L128.005 648.016L120.005 648.005Z"/>
	<path fill="white" transform="scale(6.19792 6.19792)" d="M71.987 696.029L71.9797 688.051L79.9604 688.003L79.9349 679.978L88.1221 679.878L88.0535 688.06L80.0872 688.044L80.007 696.017L71.987 696.029Z"/>
	<path fill="white" transform="scale(6.19792 6.19792)" d="M96.0045 672.005L95.99 664.022L103.953 664.012L103.952 655.985L112.124 655.878L112.055 664.056L104.088 664.045L104.007 672.019L96.0045 672.005Z"/>
	<path fill="#E0F8FA" transform="scale(6.19792 6.19792)" d="M295.926 247.92L311.98 247.976L311.961 240L335.981 240.002L335.964 232.026L432.02 232.04L432.025 239.997L455.99 240.012L456.03 247.977L464.024 247.981L464.042 256.029L480.022 256.036L480.029 264.003L488.027 264.002L488.05 271.983L496.052 271.977L496.067 280.031L503.816 280.022C504.274 281.483 504.025 283.526 504.025 285.073L504.014 295.98L512.026 295.981L512.043 304.031L520.049 304.017L520.073 319.986L528.015 319.978L528.031 343.978L536.019 343.977L536.02 360.004L536.004 408.05L527.972 407.996L528.01 432.049L520.01 431.997L520.048 448.081L511.945 448.025L511.998 464.088L503.975 464.004L504.004 472.088L495.97 472.02L496.038 488.095L479.979 487.974L480.016 496.087L471.979 496.021L472.035 504.024L463.981 503.989L463.998 512.094L447.992 511.964L448.05 520.091L431.981 520.034L432.012 528.05L335.98 528.043L335.999 520.048L319.947 520.082L319.972 512.005L303.971 512.081L303.981 504.002L287.981 504.019L288.001 496.03L279.97 496.083C279.988 493.564 280.362 490.433 279.856 487.999L271.943 488.09L271.975 480.007L263.981 480.048L264.001 472.031L255.984 472.086L256.003 456.007L247.95 456.049L247.959 440.001L239.987 440.093L239.99 416.005L231.983 416.092L231.948 376.014L231.929 335.997L239.981 336.004L239.958 319.965L247.94 319.976L247.92 304.025L255.97 304.029L255.928 287.997L263.982 288.004L263.96 280.021L271.942 280.026L271.918 271.968L279.972 271.979L279.931 263.996L287.982 264.005L287.96 256.023L295.94 256.025L295.926 247.92Z"/>
	<path fill="#65D6F1" transform="scale(6.19792 6.19792)" d="M287.999 287.997L287.98 280.044L295.98 280.022L295.973 287.996L287.999 287.997Z"/>
	<path fill="#65D6F1" transform="scale(6.19792 6.19792)" d="M455.981 312.003L463.984 311.995L463.995 319.932L456.001 319.999L455.981 312.003Z"/>
	<path fill="#65D6F1" transform="scale(6.19792 6.19792)" d="M256.036 343.975L255.974 328.05L264.006 328.081L263.999 343.97L256.036 343.975Z"/>
	<path fill="#65D6F1" transform="scale(6.19792 6.19792)" d="M288.01 416.005L295.971 415.963L295.991 431.984L287.997 432.011L288.01 416.005Z"/>
	<path fill="#65D6F1" transform="scale(6.19792 6.19792)" d="M271.913 311.978L271.963 328.004L264.006 328.081L263.976 312.004L271.913 311.978Z"/>
	<path fill="#65D6F1" transform="scale(6.19792 6.19792)" d="M319.913 263.98L319.974 271.964L311.98 271.98L312.002 280.015L295.999 280.041L295.954 271.994L304.049 272.004L303.984 264.005L319.913 263.98Z"/>
	<path fill="#65D6F1" transform="scale(6.19792 6.19792)" d="M271.913 311.978L271.947 296.006L280.049 296.004L279.975 288.005L287.999 287.997L288 304.003L279.991 304.018L280.009 312L271.913 311.978Z"/>
	<path fill="#65D6F1" transform="scale(6.19792 6.19792)" d="M488.037 304.028L496.034 304.021L496.019 312.021L503.999 311.99L504.001 335.996L496.029 336.014L496.084 319.944L487.985 319.991L488.037 304.028Z"/>
	<path fill="#65D6F1" transform="scale(6.19792 6.19792)" d="M456.027 271.91C461.123 272.524 466.877 271.984 472.043 271.972L472.014 280.066L480.01 280.02L479.997 288.024L487.98 287.991L488.01 303.96L479.997 304.034L480.032 295.948L472.031 295.993L472.087 287.984L463.986 288.013C464.011 286.139 464.601 281.532 463.854 280.012L455.998 280.037L456.027 271.91Z"/>
	<path fill="#65D6F1" transform="scale(6.19792 6.19792)" d="M415.878 295.868L416.064 287.991L407.998 288.014L407.985 280.048L424.033 280.031L424.008 288.023C429.173 288.023 434.879 287.514 439.976 288.096L439.97 296.052L448.036 295.957L448.005 304.01L431.997 304.015L432.035 295.972L415.878 295.868Z"/>
	<path fill="#65D6F1" transform="scale(6.19792 6.19792)" d="M295.95 400.05L287.979 400.029L288.005 408.003L280.028 408.009L279.98 352.046L288.002 352.016L287.999 384.025L295.969 383.981L295.95 400.05Z"/>
	<path fill="#65D6F1" transform="scale(6.19792 6.19792)" d="M319.913 263.98L319.96 256.048L336.012 256.054L335.978 247.996L367.991 248.01L367.953 240.005L400.035 239.994L400.013 248.048L432.009 247.975L431.995 256.066L448.034 256.031L448.008 264.026L456.009 263.989L456.027 271.91L439.981 271.985L440.052 263.994L424.025 264.008L424.078 256.016L343.928 256.031L343.972 264.003L319.913 263.98Z"/>
	<path fill="#65D6F1" transform="scale(6.19792 6.19792)" d="M456.007 327.891L463.987 328.056L464.08 319.989L472.043 319.955L472.014 328.066L480.004 328.011L479.998 352.067L487.975 352.017L487.971 408.002L479.976 407.999L480.002 432.002L471.993 431.998L472.014 439.974L463.934 439.984L463.99 471.95L423.987 472.031L424.011 480.008L407.978 480.002L408.002 487.984L359.996 487.988L360.038 479.998L335.996 480.01L336.034 472.029L319.979 472.038L320.058 463.951L311.996 463.995L312.04 455.99L304.03 456.016L304.08 448.019L295.984 448.053L296.083 432.002L304.037 431.991L304.021 440.057L312.014 439.995L311.998 448.066L327.823 448.083C330.436 447.786 333.35 448.036 335.996 448.036L335.996 439.966L328.021 439.983L327.689 424.136C328.636 425.407 328.108 430.272 328.089 432.021L336.037 431.989L335.993 440.002L344.048 439.954L343.976 448.042L376.069 448.034L376.026 456.016L384.009 456.005L383.982 448.029L415.972 448.014L415.941 439.996L424.012 439.97L423.997 432.003L432.009 432.005L431.987 424.027L439.972 424.012L439.943 415.995L447.782 415.971C448.44 415.062 447.992 402.22 447.99 400.028L456.004 400.014L456.005 352.008L448.016 352.063L448.04 344.197L455.999 343.964L456.015 336.023L456.007 327.891Z"/>
	<path fill="#E0F8FA" transform="scale(6.19792 6.19792)" d="M456.015 336.023L464.036 335.987L463.989 360.019L472.071 359.987L472.045 391.993L463.941 392.003L463.987 415.987L455.976 415.992L456.013 424.049L447.976 424.042L448.044 440L431.976 439.99L432.011 448.047L423.979 448.037L424.048 456.009L407.974 455.997L408.011 464L391.938 463.998L391.995 472.05L367.974 472.061L367.987 463.971L343.974 464.035L343.993 455.994L328.016 456.015C328.026 453.668 328.465 450.281 327.823 448.083C330.436 447.786 333.35 448.036 335.996 448.036L335.996 439.966L328.021 439.983L327.689 424.136C328.636 425.407 328.108 430.272 328.089 432.021L336.037 431.989L335.993 440.002L344.048 439.954L343.976 448.042L376.069 448.034L376.026 456.016L384.009 456.005L383.982 448.029L415.972 448.014L415.941 439.996L424.012 439.97L423.997 432.003L432.009 432.005L431.987 424.027L439.972 424.012L439.943 415.995L447.782 415.971C448.44 415.062 447.992 402.22 447.99 400.028L456.004 400.014L456.005 352.008L448.016 352.063L448.04 344.197L455.999 343.964L456.015 336.023Z"/>
	<path fill="#65D6F1" transform="scale(6.19792 6.19792)" d="M504.001 335.996L511.976 335.99L511.981 352.065L528.007 352.023L528 360.017L536.02 360.004L536.004 408.05L527.972 407.996L528.01 432.049L520.01 431.997L520.048 448.081L511.945 448.025L511.998 464.088L503.975 464.004L504.004 472.088L495.97 472.02L496.038 488.095L479.979 487.974L480.016 496.087L471.979 496.021L472.035 504.024L463.981 503.989L463.998 512.094L447.992 511.964L448.05 520.091L431.981 520.034L432.012 528.05L335.98 528.043L335.999 520.048L319.947 520.082L319.972 512.005L303.971 512.081L303.981 504.002L287.981 504.019L288.001 496.03L279.97 496.083C279.988 493.564 280.362 490.433 279.856 487.999L271.943 488.09L271.975 480.007L263.981 480.048L264.001 472.031L255.984 472.086L256.003 456.007L247.95 456.049L247.959 440.001L239.987 440.093L239.99 416.005L231.983 416.092L231.948 376.014L247.996 376.052L247.936 344.007L256.017 343.962L256.009 416.053L264.005 415.956L263.999 432.023L271.976 431.99L271.969 448.061L280.025 448.019L280.008 464.052L288.009 463.961L287.998 472.064L295.986 472.02L295.971 480.023L304.033 479.99L304.011 488.046L319.983 487.974L319.971 496.063L336.009 496.027L335.999 504.007L360.003 503.997L359.999 512.046L400.044 512.003L399.983 503.992L432.009 504.007L431.98 496.037L439.985 496.045L439.942 488.001L456.013 488.003L455.978 479.998L463.798 480.013C464.565 478.575 464.072 473.863 464.084 472.039L472.061 472.047L471.98 463.988L480.011 463.996L479.976 455.999L487.998 456.012L487.949 448.036L496.057 448.049L495.974 432.003L504.009 432.012L503.982 392.007L511.99 391.993L512.029 367.939L503.994 367.992L504.001 335.996Z"/>
	<path fill="white" transform="scale(6.19792 6.19792)" d="M295.969 383.981L295.937 344.062L303.991 343.992L304.002 328.091L312.004 328.02L311.98 320.043L319.969 319.995L319.944 312.032L327.999 312.015L328.009 304.086L343.988 304.071L343.945 296.051L375.989 295.984L375.991 288.03L384.009 287.984L384.008 295.952L415.878 295.868L416.028 304.05L432.006 304.041L432.018 311.991L448.039 311.989L448.056 328.063L456.007 327.891L456.015 336.023L455.999 343.964L448.04 344.197L448.016 352.063L456.005 352.008L456.004 400.014L447.99 400.028C447.992 402.22 448.44 415.062 447.782 415.971L439.943 415.995L439.972 424.012L431.987 424.027L432.009 432.005L423.997 432.003L424.012 439.97L415.941 439.996L415.972 448.014L383.982 448.029L384.009 456.005L376.026 456.016L376.069 448.034L343.976 448.042L344.048 439.954L335.993 440.002L336.037 431.989L328.089 432.021C328.108 430.272 328.636 425.407 327.689 424.136L328.021 439.983L335.996 439.966L335.996 448.036C333.35 448.036 330.436 447.786 327.823 448.083C326.054 447.196 322.129 447.67 320.05 447.663L319.978 439.937C317.833 439.947 313.928 440.535 312.005 439.933L311.998 423.987L304.025 424.062L304.023 407.967L295.973 408.024L295.95 400.05L295.969 383.981Z"/>
	<path fill="#E0F8FA" transform="scale(6.19792 6.19792)" d="M311.981 352.005L319.945 352.045L319.973 359.997L312.032 360.003L311.981 352.005Z"/>
	<path fill="#E0F8FA" transform="scale(6.19792 6.19792)" d="M336.009 319.939L359.99 319.917L360.007 336.011L351.979 336.04L351.988 343.976L343.938 344.037L343.959 352.036L319.951 352.032L319.91 335.982L328.045 335.997L327.978 328.013L336.001 328.031L336.009 319.939Z"/>
	<path fill="#E0F8FA" transform="scale(6.19792 6.19792)" d="M312.017 399.875L304.059 400.077L303.98 376.001L319.946 375.97L320.094 384.054L328.015 383.967L328.046 391.991L343.957 391.912L343.988 400.03L383.992 400.025L383.958 391.971L391.95 391.953L391.92 383.992L400.04 383.992L399.964 376.02L408.005 376.015L407.959 311.978L423.999 311.967L424.031 319.999L431.994 319.913L432.002 328.058L439.984 327.994L440.075 336.013L431.974 336L431.999 360.013L440.051 359.985L439.987 367.998L431.977 367.996L432.01 391.997L423.971 391.995L424.048 408.008L415.944 408.001L415.99 416.002L399.974 415.987L400.05 424.049L343.97 424.064L343.983 415.97L335.998 416.045L336.012 407.992L328.014 408.019L328.035 400.018L319.973 400.063L319.988 384.002L304.067 384L304.095 392.024L312.028 391.946L312.017 399.875Z"/>
	<path fill="#65D6F1" transform="scale(6.19792 6.19792)" d="M440.075 336.013L448.003 336.005L448.04 344.197L448.016 352.063L456.005 352.008L456.004 400.014L447.99 400.028C447.992 402.22 448.44 415.062 447.782 415.971L439.943 415.995L439.972 424.012L431.987 424.027L432.009 432.005L423.997 432.003L424.012 439.97L415.941 439.996L415.972 448.014L383.982 448.029L384.009 456.005L376.026 456.016L376.069 448.034L343.976 448.042L344.048 439.954L335.993 440.002L336.037 431.989L328.089 432.021C328.108 430.272 328.636 425.407 327.689 424.136C325.319 423.685 322.442 423.998 320.01 424.022L320.087 415.937L312.009 415.973L312.017 399.875L312.028 391.946L304.095 392.024L304.067 384L319.988 384.002L319.973 400.063L328.035 400.018L328.014 408.019L336.012 407.992L335.998 416.045L343.983 415.97L343.97 424.064L400.05 424.049L399.974 415.987L415.99 416.002L415.944 408.001L424.048 408.008L423.971 391.995L432.01 391.997L431.977 367.996L439.987 367.998L440.051 359.985L431.999 360.013L431.974 336L440.075 336.013Z"/>
</svg>
